<svg xmlns="http://www.w3.org/2000/svg" width="31" height="43" viewBox="0 0 31 43"><g><g><g><g><path fill="#3158af" d="M26.366 15.11c0 2.778-1.237 6.414-3.678 10.81-2.312 4.163-5.142 8.009-7.106 10.502C12.338 32.259 4.795 21.848 4.795 15.11c0-5.947 4.839-10.786 10.787-10.786 5.946 0 10.784 4.839 10.784 10.786zM15.583 43.15c.155-.173 3.85-4.292 7.548-9.773 3.444-5.104 7.549-12.417 7.549-18.266 0-4.037-1.57-7.83-4.42-10.68A15.001 15.001 0 0 0 15.583.01C11.544.01 7.75 1.58 4.9 4.43A15.004 15.004 0 0 0 .48 15.11c0 5.85 4.106 13.162 7.55 18.266 3.697 5.479 7.394 9.6 7.55 9.773v.001z"/></g><g><path fill="#3158af" d="M10.188 15.11a5.393 5.393 0 1 1 10.785 0 5.393 5.393 0 0 1-10.785 0z"/></g></g></g></g></svg>