<svg xmlns="http://www.w3.org/2000/svg" width="580" height="472" viewBox="0 0 580 472"><defs><clipPath id="g7jra"><path d="M122.533 85.766c23.986 0 43.433 19.584 43.433 43.746 0 24.162-19.447 43.747-43.433 43.747S79.1 153.674 79.1 129.512s19.447-43.746 43.433-43.746zm0 89.22c24.941 0 45.159-20.361 45.159-45.474 0-25.112-20.218-45.473-45.159-45.473-24.942 0-45.159 20.36-45.159 45.473s20.217 45.473 45.159 45.473z"/></clipPath><clipPath id="g7jrb"><path d="M108.726 107.045c18.65 0 33.77 15.213 33.77 33.98 0 18.765-15.12 33.979-33.77 33.979-18.65 0-33.769-15.214-33.769-33.98s15.12-33.98 33.77-33.98zm0 85.496c28.277 0 51.2-23.065 51.2-51.517s-22.923-51.517-51.2-51.517c-28.276 0-51.199 23.065-51.199 51.517s22.923 51.517 51.2 51.517z"/></clipPath><clipPath id="g7jrc"><path d="M0 287.517h2.773L0 290.29zm0 15.635l15.626-15.635h4.498L0 307.652zm0 17.362l32.978-32.997h4.497L0 325.013zm0 17.36l50.329-50.357h4.498L0 342.375zm0 17.362l67.68-67.72h4.498L0 359.737zm0 17.362l85.032-85.081h4.497L0 377.098zm0 17.361l102.383-102.442h4.498L.001 394.46zm0 17.362l119.735-119.804h4.497L0 411.822zm0 17.362l137.086-137.166h4.497L0 429.183zm11.77 5.585l130.898-130.974v4.5l-126.4 126.474zm17.352 0l113.546-113.613v4.5L33.618 430.268zm17.35 0l96.196-96.251v4.5l-91.697 91.75zm17.352 0l78.844-78.89v4.5l-74.346 74.39zm17.352 0l61.492-61.528v4.5l-56.994 57.028zm16.87 0l44.622-44.649v4.5l-40.125 40.149zm16.868 0l27.754-27.77V407l-23.256 23.269zm16.87 0l10.884-10.89v4.5l-6.386 6.39z"/></clipPath><clipPath id="g7jrd"><path d="M234.71 437.75a.863.863 0 0 1 0-1.726h101.36a.863.863 0 0 1 0 1.727z"/></clipPath><clipPath id="g7jre"><path d="M211.7 455.02a.863.863 0 0 1 0-1.728h124.37a.863.863 0 0 1 0 1.727z"/></clipPath><clipPath id="g7jrf"><path d="M517.255 315.91c1.001 0 1.813-.815 1.813-1.82a1.817 1.817 0 0 0-1.813-1.822 1.816 1.816 0 0 0-1.812 1.821c0 1.006.811 1.822 1.812 1.822zm12.256 0c1 0 1.812-.815 1.812-1.82a1.817 1.817 0 0 0-1.812-1.822 1.816 1.816 0 0 0-1.812 1.821c0 1.006.81 1.822 1.812 1.822zm12.083 0c1 0 1.812-.815 1.812-1.82a1.817 1.817 0 0 0-1.812-1.822 1.817 1.817 0 0 0-1.813 1.821c0 1.006.812 1.822 1.813 1.822zm12.255 0c1.001 0 1.813-.815 1.813-1.82a1.817 1.817 0 0 0-1.813-1.822 1.817 1.817 0 0 0-1.812 1.821c0 1.006.811 1.822 1.812 1.822zm12.083 0a1.817 1.817 0 0 0 1.812-1.82 1.817 1.817 0 0 0-1.812-1.822c-1.001 0-1.813.815-1.813 1.821s.812 1.822 1.813 1.822zm12.255 0a1.817 1.817 0 0 0 1.813-1.82 1.817 1.817 0 0 0-1.813-1.822c-1 0-1.813.815-1.813 1.821s.812 1.822 1.813 1.822zm-60.932 12.144c1.001 0 1.813-.816 1.813-1.822a1.817 1.817 0 0 0-1.813-1.821 1.816 1.816 0 0 0-1.812 1.821c0 1.006.811 1.822 1.812 1.822zm12.256 0c1 0 1.812-.816 1.812-1.822a1.817 1.817 0 0 0-1.812-1.821 1.816 1.816 0 0 0-1.812 1.821c0 1.006.81 1.822 1.812 1.822zm12.083 0c1 0 1.812-.816 1.812-1.822a1.817 1.817 0 0 0-1.812-1.821 1.817 1.817 0 0 0-1.813 1.821c0 1.006.812 1.822 1.813 1.822zm12.255 0c1.001 0 1.813-.816 1.813-1.822a1.817 1.817 0 0 0-1.813-1.821 1.817 1.817 0 0 0-1.812 1.821c0 1.006.811 1.822 1.812 1.822zm12.083 0a1.817 1.817 0 0 0 1.812-1.822 1.817 1.817 0 0 0-1.812-1.821c-1.001 0-1.813.815-1.813 1.821s.812 1.822 1.813 1.822zm12.255 0a1.817 1.817 0 0 0 1.813-1.822 1.817 1.817 0 0 0-1.813-1.821c-1 0-1.813.815-1.813 1.821s.812 1.822 1.813 1.822zm-60.932 12.143c1.001 0 1.813-.816 1.813-1.822a1.817 1.817 0 0 0-1.813-1.821 1.816 1.816 0 0 0-1.812 1.821c0 1.006.811 1.822 1.812 1.822zm12.256 0c1 0 1.812-.816 1.812-1.822a1.817 1.817 0 0 0-1.812-1.821 1.816 1.816 0 0 0-1.812 1.821c0 1.006.81 1.822 1.812 1.822zm12.083 0c1 0 1.812-.816 1.812-1.822a1.817 1.817 0 0 0-1.812-1.821 1.817 1.817 0 0 0-1.813 1.821c0 1.006.812 1.822 1.813 1.822zm12.255 0c1.001 0 1.813-.816 1.813-1.822a1.817 1.817 0 0 0-1.813-1.821 1.817 1.817 0 0 0-1.812 1.821c0 1.006.811 1.822 1.812 1.822zm12.083 0a1.817 1.817 0 0 0 1.812-1.822 1.817 1.817 0 0 0-1.812-1.821c-1.001 0-1.813.815-1.813 1.821s.812 1.822 1.813 1.822zm12.255 0a1.817 1.817 0 0 0 1.813-1.822 1.817 1.817 0 0 0-1.813-1.821c-1 0-1.813.815-1.813 1.821s.812 1.822 1.813 1.822zm-60.932 12.142c1.001 0 1.813-.815 1.813-1.82a1.817 1.817 0 0 0-1.813-1.822 1.816 1.816 0 0 0-1.812 1.821c0 1.007.811 1.821 1.812 1.821zm12.256 0c1 0 1.812-.815 1.812-1.82a1.817 1.817 0 0 0-1.812-1.822 1.816 1.816 0 0 0-1.812 1.821c0 1.007.81 1.821 1.812 1.821zm12.083 0c1 0 1.812-.815 1.812-1.82a1.816 1.816 0 0 0-1.812-1.822 1.817 1.817 0 0 0-1.813 1.821c0 1.007.812 1.821 1.813 1.821zm12.255 0c1.001 0 1.813-.815 1.813-1.82a1.816 1.816 0 0 0-1.813-1.822 1.817 1.817 0 0 0-1.812 1.821c0 1.007.811 1.821 1.812 1.821zm12.083 0a1.816 1.816 0 0 0 1.812-1.82 1.817 1.817 0 0 0-1.812-1.822c-1.001 0-1.813.815-1.813 1.821 0 1.007.812 1.821 1.813 1.821zm12.255 0a1.817 1.817 0 0 0 1.813-1.82 1.817 1.817 0 0 0-1.813-1.822c-1 0-1.813.815-1.813 1.821 0 1.007.812 1.821 1.813 1.821zm-60.932 12.143c1.001 0 1.813-.814 1.813-1.82a1.817 1.817 0 0 0-1.813-1.822 1.816 1.816 0 0 0-1.812 1.822c0 1.006.811 1.82 1.812 1.82zm12.256 0c1 0 1.812-.814 1.812-1.82a1.817 1.817 0 0 0-1.812-1.822 1.816 1.816 0 0 0-1.812 1.822c0 1.006.81 1.82 1.812 1.82zm12.083 0c1 0 1.812-.814 1.812-1.82a1.816 1.816 0 0 0-1.812-1.822 1.817 1.817 0 0 0-1.813 1.822c0 1.006.812 1.82 1.813 1.82zm12.255 0c1.001 0 1.813-.814 1.813-1.82a1.816 1.816 0 0 0-1.813-1.822 1.817 1.817 0 0 0-1.812 1.822c0 1.006.811 1.82 1.812 1.82zm12.083 0a1.816 1.816 0 0 0 1.812-1.82 1.817 1.817 0 0 0-1.812-1.822c-1.001 0-1.813.815-1.813 1.822 0 1.006.812 1.82 1.813 1.82zm12.255 0a1.817 1.817 0 0 0 1.813-1.82 1.817 1.817 0 0 0-1.813-1.822c-1 0-1.813.815-1.813 1.822 0 1.006.812 1.82 1.813 1.82zm-60.932 12.143c1.001 0 1.813-.815 1.813-1.82a1.817 1.817 0 0 0-1.813-1.822 1.817 1.817 0 0 0-1.812 1.822c0 1.005.811 1.82 1.812 1.82zm12.256 0c1 0 1.812-.815 1.812-1.82a1.817 1.817 0 0 0-1.812-1.822 1.817 1.817 0 0 0-1.812 1.822c0 1.005.81 1.82 1.812 1.82zm12.083 0c1 0 1.812-.815 1.812-1.82a1.817 1.817 0 0 0-1.812-1.822 1.817 1.817 0 0 0-1.813 1.822c0 1.005.812 1.82 1.813 1.82zm12.255 0c1.001 0 1.813-.815 1.813-1.82a1.817 1.817 0 0 0-1.813-1.822 1.817 1.817 0 0 0-1.812 1.822c0 1.005.811 1.82 1.812 1.82zm12.083 0a1.817 1.817 0 0 0 1.812-1.82 1.817 1.817 0 0 0-1.812-1.822c-1.001 0-1.813.815-1.813 1.822 0 1.005.812 1.82 1.813 1.82zm12.255 0a1.817 1.817 0 0 0 1.813-1.82 1.817 1.817 0 0 0-1.813-1.822c-1 0-1.813.815-1.813 1.822 0 1.005.812 1.82 1.813 1.82zm-60.932 12.144c1.001 0 1.813-.816 1.813-1.821a1.817 1.817 0 0 0-1.813-1.822 1.817 1.817 0 0 0-1.812 1.822c0 1.005.811 1.82 1.812 1.82zm12.256 0c1 0 1.812-.816 1.812-1.821a1.817 1.817 0 0 0-1.812-1.822 1.817 1.817 0 0 0-1.812 1.822c0 1.005.81 1.82 1.812 1.82zm12.083 0c1 0 1.812-.816 1.812-1.821a1.817 1.817 0 0 0-1.812-1.822 1.817 1.817 0 0 0-1.813 1.822c0 1.005.812 1.82 1.813 1.82zm12.255 0c1.001 0 1.813-.816 1.813-1.821a1.817 1.817 0 0 0-1.813-1.822 1.817 1.817 0 0 0-1.812 1.822c0 1.005.811 1.82 1.812 1.82zm12.083 0a1.817 1.817 0 0 0 1.812-1.821 1.817 1.817 0 0 0-1.812-1.822c-1.001 0-1.813.815-1.813 1.822 0 1.005.812 1.82 1.813 1.82zm12.255 0a1.817 1.817 0 0 0 1.813-1.821 1.817 1.817 0 0 0-1.813-1.822c-1 0-1.813.815-1.813 1.822 0 1.005.812 1.82 1.813 1.82zm-60.932 12.143c1.001 0 1.813-.816 1.813-1.821a1.817 1.817 0 0 0-1.813-1.822 1.817 1.817 0 0 0-1.812 1.822c0 1.005.811 1.82 1.812 1.82zm12.256 0c1 0 1.812-.816 1.812-1.821a1.817 1.817 0 0 0-1.812-1.822 1.817 1.817 0 0 0-1.812 1.822c0 1.005.81 1.82 1.812 1.82zm12.083 0c1 0 1.812-.816 1.812-1.821a1.817 1.817 0 0 0-1.812-1.822 1.817 1.817 0 0 0-1.813 1.822c0 1.005.812 1.82 1.813 1.82zm12.255 0c1.001 0 1.813-.816 1.813-1.821a1.817 1.817 0 0 0-1.813-1.822 1.817 1.817 0 0 0-1.812 1.822c0 1.005.811 1.82 1.812 1.82zm12.083 0a1.817 1.817 0 0 0 1.812-1.821 1.817 1.817 0 0 0-1.812-1.822c-1.001 0-1.813.815-1.813 1.822 0 1.005.812 1.82 1.813 1.82zm12.255 0A1.817 1.817 0 0 0 580 399.09a1.817 1.817 0 0 0-1.813-1.822c-1 0-1.813.815-1.813 1.822 0 1.005.812 1.82 1.813 1.82z"/></clipPath><clipPath id="g7jrg"><path d="M138.065 180.453V9.498h353.792v170.955z"/></clipPath><clipPath id="g7jrh"><path d="M132.025.288c0-.106 118.026-.202 354.08-.288.105 0 .201 58.04.287 174.122 0 .106-118.027.202-354.08.288-.105 0-.201-58.04-.287-174.122z"/></clipPath><clipPath id="g7jri"><path d="M132.6 173.834V.576h353.217v173.258z"/></clipPath><clipPath id="g7jrj"><path d="M155.403 38.89a.287.287 0 0 1 0-.575h37.476a.288.288 0 0 1 0 .576z"/></clipPath><clipPath id="g7jrk"><path d="M155.323 49.79a.287.287 0 0 1 0-.575h112.262a.288.288 0 0 1 0 .575z"/></clipPath><clipPath id="g7jrl"><path d="M155.323 60.833a.288.288 0 0 1 0-.575h89.25a.288.288 0 0 1 0 .575z"/></clipPath><clipPath id="g7jrm"><path d="M155.323 71.664a.288.288 0 0 1 0-.576H256.08a.288.288 0 0 1 0 .576z"/></clipPath><clipPath id="g7jrn"><path d="M155.323 82.6a.288.288 0 0 1 0-.575h60.487a.287.287 0 1 1 0 .575z"/></clipPath><clipPath id="g7jro"><path d="M305.182 50.078h163.376v108.215H305.182zm163.664 108.79a.288.288 0 0 0 .288-.288V49.79a.288.288 0 0 0-.288-.287H304.894a.288.288 0 0 0-.288.287v108.79c0 .16.129.288.288.288z"/></clipPath><clipPath id="g7jrp"><path d="M213.138 14.966h197.893v5.756H213.138zm198.181 6.331a.288.288 0 0 0 .288-.287v-6.332a.288.288 0 0 0-.288-.288H212.85a.288.288 0 0 0-.287.288v6.332c0 .158.129.287.287.287z"/></clipPath><clipPath id="g7jrq"><path d="M312.75 150.636l37.625-36.58c.081-.08 6.014 7.337 17.796 22.248l47.542-64.268a.288.288 0 0 1 .49.046l14.634 30.425 28.317-39.985c.53.024.561.203.47.333l-28.6 40.384a.287.287 0 0 1-.494-.042l-14.638-30.435-47.484 64.189a.287.287 0 0 1-.458.006l-17.405-22.264-37.394 36.356c-.517-.12-.515-.302-.4-.413z"/></clipPath><clipPath id="g7jrr"><path d="M370.181 151.018l-31.292-40.8-25.695 40.778c-.53.005-.571-.172-.487-.307l25.916-41.128c.106-.17.35-.18.471-.021l31.224 40.71 27.294-75.606a.288.288 0 0 1 .537-.012l22.722 55.226 38.29-50.076c.528.043.553.224.456.35l-38.593 50.473a.288.288 0 0 1-.495-.065l-22.629-55-27.22 75.4a.286.286 0 0 1-.271.19.284.284 0 0 1-.228-.112z"/></clipPath><clipPath id="g7jrs"><path d="M157.337 97.854h20.134v58.136h-20.134zm20.422 58.711a.288.288 0 0 0 .288-.287V97.566a.288.288 0 0 0-.288-.288h-20.71a.288.288 0 0 0-.287.288v58.712c0 .159.129.287.287.287z"/></clipPath><clipPath id="g7jrt"><path d="M186.1 120.878h20.135v35.112H186.1zm20.422 35.687a.288.288 0 0 0 .288-.287V120.59a.288.288 0 0 0-.288-.288h-20.71a.288.288 0 0 0-.287.288v35.688c0 .159.129.287.288.287z"/></clipPath><clipPath id="g7jru"><path d="M216.014 109.366h20.135v46.624h-20.135zm20.423 47.2a.287.287 0 0 0 .287-.288v-47.2a.288.288 0 0 0-.287-.288h-20.71a.288.288 0 0 0-.288.288v47.2c0 .159.129.287.288.287z"/></clipPath><clipPath id="g7jrv"><path d="M245.64 156.854v-29.932h20.71v29.932z"/></clipPath><clipPath id="g7jrw"><path d="M285.866 163.616c-2.899-6.95-2.773-10.956-2.547-13.621-2.657 10.698-3.868 20.059 1.69 29.679-2.71.57-6.282-1.97-7.183-3.005-1.11-1.275-3.191-12.317-1.582-18.499-5.491 7.14-1.12 18.944-1.61 18.5-6.695-1.414-10.861-3.897-12.5-7.448l-10.74-16.555v-27.595l19.359-9.725c6.445-5.457 11.482-6.55 15.113-3.279 5.759 5.19 8.576 12.025 2.462 28.699-2.083 5.68-2.907 7.826-2.462 14.018.63 8.793 8.874 18.484 6.148 26.214-1.919-7.966-4.21-12.735-6.148-17.383z"/></clipPath><clipPath id="g7jrx"><path d="M236.766 148.74l8.733-5.029c-.413-.892-1.222-3.819-2.425-8.778-1.806-7.44 9.542-27.849 25.573-32.12 16.032-4.27 21.824 11.476 21.824 23.505 0 7.928-18.595 33.583-21.824 33.583-1.679 0-4.479-1.445-8.4-4.333l-13.019 9.644z"/></clipPath><clipPath id="g7jry"><path d="M269.802 132.102a1.15 1.15 0 1 1 2.301 0 1.15 1.15 0 0 1-2.3 0z"/></clipPath><clipPath id="g7jrz"><path d="M281.883 138.434a1.15 1.15 0 1 1 2.301-.001 1.15 1.15 0 0 1-2.3 0z"/></clipPath><clipPath id="g7jrA"><path d="M259.551 246.399a.288.288 0 0 1-.161-.26V227.68c0-.16.129-.288.288-.288h4.84c4.745 0 9.992.282 15.743.844 3.607.353 12.807-1.824 27.53-6.53l7.458-7.558v17.773a5.133 5.133 0 0 1-.16.05c-1.226.382-2.317.465-3.916.434l-.39-.008c-23.748 9.792-39.47 14.693-47.272 14.693-1.692 0-3.011-.23-3.96-.691z"/></clipPath><clipPath id="g7jrB"><path d="M259.965 245.956v-17.989h4.554c4.724 0 9.953.28 15.686.842 3.724.364 12.977-1.827 27.946-6.647l10.745-10.893 12.695 7.755h-3.63a.288.288 0 0 0-.218.1c-5.395 6.278-9.102 10.11-11.095 11.476a6.362 6.362 0 0 1-1.729.822c-1.153.358-2.193.438-3.735.407-.33-.007-.353-.007-.568.015-23.741 9.791-39.476 14.681-47.095 14.68-1.5 0-2.686-.19-3.556-.568z"/></clipPath><clipPath id="g7jrC"><path d="M318.7 183.62h36.818a3.165 3.165 0 0 1 3.164 3.165v50.654a3.165 3.165 0 0 1-3.164 3.166H318.7a3.165 3.165 0 0 1-3.164-3.166v-50.654a3.165 3.165 0 0 1 3.164-3.166zm36.818 57.56a3.74 3.74 0 0 0 3.739-3.741v-50.654a3.74 3.74 0 0 0-3.74-3.741h-36.816a3.74 3.74 0 0 0-3.74 3.741v50.654a3.74 3.74 0 0 0 3.74 3.741z"/></clipPath><clipPath id="g7jrD"><path d="M336.534 186.21a.575.575 0 1 1 1.15 0 .575.575 0 0 1-1.15 0z"/></clipPath><clipPath id="g7jrE"><path d="M335.383 237.726a1.439 1.439 0 1 1 2.877 0 1.439 1.439 0 0 1-2.877 0z"/></clipPath><clipPath id="g7jrF"><path d="M318.125 188.8h37.393c.476 0 .862.386.862.863v43.747a.863.863 0 0 1-.862.863h-37.393a.863.863 0 0 1-.863-.863v-43.747c0-.477.386-.863.863-.863zm37.393 46.049c.794 0 1.438-.645 1.438-1.44v-43.746c0-.795-.644-1.439-1.438-1.439h-37.393c-.794 0-1.438.644-1.438 1.44v43.746c0 .794.644 1.439 1.438 1.439z"/></clipPath><clipPath id="g7jrG"><path d="M324.453 195.132a1.439 1.439 0 1 1 0 2.877 1.439 1.439 0 0 1 0-2.877zm0 3.453a2.014 2.014 0 1 0-.001-4.028 2.014 2.014 0 0 0 .001 4.028z"/></clipPath><clipPath id="g7jrH"><path d="M323.015 200.312h27.613v15.541h-27.613zm27.9 16.117a.288.288 0 0 0 .288-.288v-16.117a.287.287 0 0 0-.287-.288h-28.189a.288.288 0 0 0-.287.288v16.117c0 .159.129.288.287.288z"/></clipPath><clipPath id="g7jrI"><path d="M331.644 219.307H342v1.727h-10.355zm10.642 2.302a.288.288 0 0 0 .288-.288v-2.302a.288.288 0 0 0-.288-.288h-10.93a.288.288 0 0 0-.287.288v2.302c0 .16.128.288.287.288z"/></clipPath><clipPath id="g7jrJ"><path d="M325.316 223.912h22.436v1.727h-22.436zm22.723 2.302a.288.288 0 0 0 .288-.288v-2.302a.288.288 0 0 0-.288-.288h-23.01a.288.288 0 0 0-.288.288v2.302c0 .16.128.288.287.288z"/></clipPath><clipPath id="g7jrK"><path d="M328.192 196.283h5.178v.575h-5.178zm5.466 1.15a.288.288 0 0 0 .287-.287v-1.15a.288.288 0 0 0-.287-.289h-5.754a.288.288 0 0 0-.287.288v1.151c0 .159.129.288.287.288z"/></clipPath><clipPath id="g7jrL"><path d="M325.316 228.517h22.436v1.727h-22.436zm22.723 2.302a.288.288 0 0 0 .288-.288v-2.302a.288.288 0 0 0-.288-.288h-23.01a.288.288 0 0 0-.288.288v2.302c0 .16.128.288.287.288z"/></clipPath><clipPath id="g7jrM"><path d="M316.974 190.239v-.576c0-.636.516-1.151 1.151-1.151h37.393c.635 0 1.15.515 1.15 1.151v.576z"/></clipPath><clipPath id="g7jrN"><path d="M260.336 249.24a.287.287 0 0 1-.284-.278l-.953-24.854a.287.287 0 0 1 .393-.28c5.949 2.348 9.625 3.548 10.96 3.59.23.008.546.083 1.084.244.082.025 1.2.373 1.582.485 1.223.358 2.24.581 3.216.668 1.632.146 2.947-.125 3.916-.906.931-.75 1.877-.042 2.714 1.667.7 1.427 1.35 3.585 1.83 5.996 1.053 5.295 1.022 9.844-.489 10.281-2.338.676-10.577 2.79-11.244 2.893-2.175.338-5.613.507-10.315.507-.77 0-1.572-.005-2.41-.014z"/></clipPath><clipPath id="g7jrO"><path d="M260.616 248.667l-.926-24.141c5.786 2.27 9.345 3.423 10.743 3.467.162.006.45.075.937.22.079.024 1.2.373 1.586.487 1.256.367 2.307.597 3.327.689 1.767.157 3.226-.143 4.328-1.03.517-.418 1.14.05 1.837 1.47.675 1.376 1.312 3.49 1.782 5.855.974 4.896.942 9.319-.084 9.616-2.315.669-10.539 2.778-11.173 2.877-2.142.333-5.554.5-10.232.5-.681 0-1.39-.003-2.125-.01z"/></clipPath><clipPath id="g7jrP"><path d="M260.339 248.952l-.953-24.855c4.227 15.13 7.655 20.504 10.285 16.12 8.616-14.366 3.946 8.151 3.346 8.244-2.16.336-5.585.504-10.278.504-.766 0-1.567-.005-2.4-.013z"/></clipPath><clipPath id="g7jrQ"><path d="M273.714 251.614c-2.04-.394-2.6-3.981-2.565-11.4.005-.763.012-1.428.03-2.695.07-5.136.02-6.87-.344-7.827-1.129-2.958.124-4.67 2.2-4.542.737.045 1.217.315 1.99.965l.194.162c.756.63 1.194.802 1.912.596.277-.079.477-.262.86-.74l.047-.059c1.05-1.311 1.926-1.5 3.799-.124 3.268 2.4 5.495 19.028 2.468 19.903-.307.089-.5.34-.78.96-.033.07-.146.328-.166.373-.07.156-.128.28-.189.402-.846 1.69-2.237 2.396-5.131 1.97-.167-.025-.258.05-.429.359.016-.028-.234.447-.322.593-.487.801-1.19 1.237-2.342 1.237-.363 0-.772-.043-1.232-.133z"/></clipPath><clipPath id="g7jrR"><path d="M273.824 251.05c-1.575-.305-2.133-3.866-2.099-10.833.004-.76.012-1.424.029-2.69.072-5.278.024-6.977-.382-8.04-.98-2.568-.03-3.865 1.628-3.763.58.037.97.256 1.656.832l.194.164c.888.74 1.496.977 2.44.707.431-.124.693-.364 1.149-.933l.048-.06c.869-1.085 1.403-1.2 3.009-.02 2.946 2.163 5.092 18.18 2.65 18.886-.523.15-.801.512-1.146 1.275l-.167.376c-.066.149-.12.266-.177.378-.734 1.466-1.882 2.05-4.533 1.66-.469-.07-.743.154-1.017.651.013-.022-.232.442-.31.57-.38.627-.904.965-1.837.965-.325 0-.7-.041-1.135-.125z"/></clipPath><clipPath id="g7jrS"><path d="M272.329 297.489c-31.812-4.403-49.54-7.6-53.322-9.627-1.273-.683-2.827-1.072-4.713-1.25-1.191-.112-2.176-.133-4.173-.123-2.379.011-3.186-.03-3.903-.281-1.041-.367-1.214-1.186-.474-2.414 1.988-3.303 5.185-9.71 7.507-15.54 3.345-8.4 4.846-15.241 3.798-19.464-1.602-6.462-2.542-15.954-2.822-28.483-7.325-28.494-8.51-45.737-3.491-51.834 6.89-8.368 26.2-23.822 28.482-23.139 1.334.4 8.158 6.824 20.807 19.548 3.728 4.25 6.53 9.799 8.408 16.641.634 2.311 1.14 3.62 4.147 11.02l.563 1.393c2.798 6.958 4.077 10.981 4.077 13.75 0 1.74-.72 3.683-2.07 5.846-1.109 1.778-2.593 3.639-4.535 5.778-1.048 1.154-4.27 4.519-4.492 4.758-1.335 1.438-1.965 2.285-1.965 2.648 0 1.612 5.284 42.18 6.221 48.672.084.581.324.93.933 1.499l.232.216c1.327 1.247 1.718 2.453 1.104 5.107-.525 2.271.123 4.388 1.746 7.05.223.366 1.148 1.807 1.347 2.142.44.743.652 1.25.652 1.686 0 1.777-2.488 4.41-3.919 4.41-.05 0-.098-.003-.145-.01z"/></clipPath><clipPath id="g7jrT"><path d="M272.408 296.918c-31.685-4.385-49.44-7.586-53.13-9.563-1.35-.724-2.974-1.131-4.93-1.316-1.216-.114-2.215-.135-4.23-.126-2.287.011-3.085-.029-3.71-.248-.656-.231-.74-.63-.171-1.574 2.004-3.33 5.214-9.764 7.548-15.624 3.389-8.507 4.909-15.438 3.823-19.816-1.592-6.417-2.528-15.883-2.816-28.455-7.28-28.313-8.462-45.466-3.612-51.356 3.39-4.118 9.551-9.813 16.115-15.066 5.933-4.748 10.996-8.117 11.758-7.888 1.182.353 8.14 6.903 20.552 19.389 3.654 4.168 6.417 9.638 8.273 16.4.644 2.345 1.15 3.651 4.169 11.084.208.514.39.963.562 1.392 2.767 6.878 4.037 10.87 4.037 13.535 0 1.614-.686 3.462-1.983 5.541-1.088 1.744-2.553 3.58-4.474 5.695-1.041 1.147-4.261 4.51-4.488 4.754-1.478 1.593-2.118 2.454-2.118 3.04 0 1.656 5.28 42.202 6.227 48.754.107.742.413 1.187 1.109 1.837l.231.215c1.18 1.11 1.504 2.108.938 4.558-.568 2.453.12 4.701 1.814 7.479.229.375 1.152 1.812 1.344 2.137.39.657.572 1.093.572 1.392 0 1.468-2.25 3.836-3.321 3.836a.65.65 0 0 1-.09-.006z"/></clipPath><clipPath id="g7jrU"><path d="M217.328 248.72c-1.597-6.442-2.536-15.926-2.815-28.452-3.6-16.903-5.57-28.264-5.911-34.085-.476-8.114 19.091-18.544 21.991-7.25 1.057 4.114 3.177 20.266-9.696 43.71-6.003 10.932-3.778 24.766-3.352 26.987-.045-.2-.115-.5-.217-.91zm.217.91c.047.208.066.307.064.307"/></clipPath><clipPath id="g7jrV"><path d="M262.557 173.725l-3.256-2.6-5.715-10.538h4.85l9.286 7.576c3.21 6.606 4.88 10.287 5.01 11.044.132.756-.078 1.387-.628 1.891l-4.51-8.083.173-.408-.39.02-.138-.247-.11.26-.392.02.216.389-5.085 11.878z"/></clipPath><clipPath id="g7jrW"><path d="M266.532 177.435l-2.116-4.013 1.917-3.402 5.73 10.868z"/></clipPath><clipPath id="g7jrX"><path d="M263.132 173.76a.575.575 0 0 0-.216-.485l-3.165-2.528-5.198-9.584h3.678l9.03 7.366c3.118 6.421 4.79 10.108 4.905 10.776.044.256.04.485-.018.693l-4.407-7.898a.575.575 0 0 0-1.03.054l-4.065 9.493z"/></clipPath><clipPath id="g7jrY"><path d="M239.419 170.61c-.84-4.235-1.765-12.527-6.679-15.521-3.128-1.905-5.337-1.24-6.53-.573-.683.381-1.033.762-1.033.663 0-.184 1.634-1.533 4.902-4.05l4.197-1.209c9.574 8.277 15.714 13.669 18.42 16.176 4.062 3.76 6.188 8.635 2.574 5.909-3.615-2.728-9.752-1.986-12.826 3.454a.789.789 0 0 1-.237.036c-1.087 0-2.261-2.227-2.788-4.884z"/></clipPath><clipPath id="g7jrZ"><path d="M275.437 147.453l-3.814-2.64a.287.287 0 1 1 .327-.473l3.483 2.41 3.406-12.135a.287.287 0 1 1 .553.156l-3.514 12.523a.288.288 0 0 1-.44.159z"/></clipPath><clipPath id="g7jraa"><path d="M222.623 166.3a.287.287 0 0 1-.042-.406c3.98-4.92 7.83-7.812 11.556-8.662a.288.288 0 0 1 .128.56c-3.58.818-7.33 3.635-11.237 8.465a.285.285 0 0 1-.405.042z"/></clipPath><clipPath id="g7jrab"><path d="M267.702 146.468a.288.288 0 0 1 .495-.292c1.239 2.099 2.609 3.062 4.118 2.944a.288.288 0 0 1 .045.574 3.778 3.778 0 0 1-.294.012c-1.643 0-3.1-1.095-4.364-3.238z"/></clipPath><clipPath id="g7jrac"><path d="M267.193 296.224a.288.288 0 0 1-.18-.366c.91-2.68.91-6.314-.009-10.9-.423-2.106-.834-3.336-1.618-5.107-1.843-4.173-2.553-6.54-3.676-13.918-1.427-9.377-3.003-23.023-4.727-40.94a.29.29 0 0 1 .076-.222c6.976-7.563 10.685-12.843 11.113-15.775.276-1.882-.085-4.178-1.118-7.456-.795-2.518-.979-3-4.398-11.77-.362-.928-.674-2.756-.948-5.504a.288.288 0 0 1 .572-.057c.27 2.697.576 4.488.913 5.35 3.427 8.791 3.61 9.27 4.41 11.808 1.057 3.353 1.429 5.726 1.138 7.713-.45 3.078-4.17 8.385-11.173 15.986 1.718 17.845 3.289 31.438 4.71 40.78 1.116 7.325 1.811 9.645 3.635 13.771.798 1.808 1.223 3.076 1.655 5.229.938 4.675.938 8.407-.01 11.198a.288.288 0 0 1-.365.18z"/></clipPath><clipPath id="g7jrad"><path d="M314.192 217.565l10.12-4.922c.651.906.446 2.113-.616 3.622-1.062 1.51-2.468 2.592-4.218 3.248-.08.703-.496 1.813-1.247 3.333-.75 1.519-2.263 2.526-4.539 3.022z"/></clipPath><clipPath id="g7jrae"><path d="M313.412 225.93a.288.288 0 0 1 .22-.343c2.196-.48 3.634-1.437 4.341-2.87.737-1.49 1.143-2.576 1.22-3.237a.288.288 0 0 1 .184-.236c1.696-.636 3.056-1.683 4.084-3.144.916-1.301 1.147-2.319.745-3.085l-9.889 4.81a.288.288 0 1 1-.252-.518l10.122-4.923a.289.289 0 0 1 .36.09c.736 1.027.509 2.359-.616 3.957a9.099 9.099 0 0 1-4.193 3.29c-.126.744-.542 1.822-1.249 3.252-.793 1.605-2.38 2.663-4.735 3.176a.287.287 0 0 1-.342-.22z"/></clipPath><clipPath id="g7jraf"><path d="M253.827 168.671c-1.6-1.875-2.933-2.41-4-1.606l-5.738 9.83c-1.664-4.1-5.037-10.696-7.197-15.597-2.16-4.9-8.21-7.914-9.01-10.44-.81-2.554 2.15-2.549 4.563-6.078 10.586 9.318 17.163 15.336 19.731 18.052 3.853 4.076-1.014-.504 8.695 12.402l1.275 10.254z"/></clipPath><clipPath id="g7jrag"><path d="M261.86 185.523l-1.265-10.177c-2.703-3.595-4.46-6.076-5.513-7.737a20.262 20.262 0 0 1-.913-1.562 11.81 11.81 0 0 1-.222-.457c-.02-.042-.122-.27-.149-.326a3.586 3.586 0 0 0-.072-.148c-.204-.39-.56-.818-1.76-2.086-2.54-2.687-9.033-8.632-19.47-17.822-.245.336-.502.651-.773.95-.784.862-3.108 2.704-2.99 2.595-.68.63-.853 1.15-.578 2.018.191.602.73 1.285 1.697 2.21.476.453 2.579 2.312 3.069 2.767 2.063 1.918 3.412 3.568 4.235 5.434.74 1.68 1.534 3.38 3.019 6.494l.084.177c2.247 4.712 3.128 6.599 3.874 8.395l5.445-9.328c1.3-1.007 2.782-.411 4.468 1.565a.287.287 0 1 1-.438.373c-1.488-1.745-2.658-2.234-3.563-1.596l-5.708 9.779a.288.288 0 0 1-.515-.037c-.8-1.97-1.617-3.732-4.082-8.903l-.084-.177c-1.487-3.12-2.283-4.822-3.027-6.51-.785-1.779-2.088-3.375-4.1-5.244-.481-.448-2.588-2.31-3.074-2.773-1.033-.987-1.619-1.731-1.848-2.452-.347-1.096-.098-1.842.734-2.613-.086.079 2.21-1.741 2.956-2.562.325-.356.627-.737.91-1.153a.288.288 0 0 1 .428-.053c10.594 9.324 17.173 15.345 19.75 18.071 1.237 1.309 1.613 1.76 1.85 2.214.028.053.055.108.085.17l.15.331c.067.148.132.281.21.434.208.403.49.887.888 1.517 1.05 1.654 2.812 4.143 5.533 7.76.03.04.05.087.055.137l1.276 10.254a.288.288 0 0 1-.571.071z"/></clipPath><clipPath id="g7jrah"><path d="M258.977 167.736c-.438-.045-2.713-2.335-2.25-6.297-.575.863-1.703 3.125-1.02 5.865-11.575-2.378-21.203-8.773-26.314-18.75-2.856-5.575 3.6-12.987 6.826-16.985 3.226-4-1.764-11.085 11.428-26.941 13.193-15.857 24.674-9.958 36.576 1.847 11.902 11.806 7.236 25.382 3.794 26.563.624-2.51 1.68-7.972.918-7.76-2.97.825-9.437 2.124-21.644-1.425-4.818 1.424-6.287 6.015-6.589 8.77-.394 3.607 3.591 9.723 4.958 15.93 1.815 8.25-.336 16.759-.558 17.094-.226.342.908-10.439-2.012-17.7-1.462-3.634-1.462-3.634-3.964-7.568-2.501-3.935-1.948-7.977-1.983-7.756-.475 3.088-.834 8.718 1.425 12.058 3.572 5.279 5.277 13.104 5.114 23.477-2.39-.206-3.958-.347-4.705-.422z"/></clipPath><clipPath id="g7jrai"><path d="M418.786 231.437l2.735-9.345a.287.287 0 0 1 .088-.136l4.026-3.491a.288.288 0 0 1 .476.218v12.836c0 .29-.383.398-.534.148l-2.157-3.572-4.168 3.64a.282.282 0 0 1-.187.073.289.289 0 0 1-.279-.37z"/></clipPath><clipPath id="g7jraj"><path d="M422.05 222.336l3.485-3.023v11.173l-1.8-2.981a.288.288 0 0 0-.435-.069l-3.685 3.218z"/></clipPath><clipPath id="g7jrak"><path d="M401.868 188.988c-2.065-.631-3.139-1.493-3.139-2.63 0-1.068 1.605-3.635 4.86-7.855.185-.24.566-.069.51.228l-1.864 10.035a.287.287 0 0 1-.367.222z"/></clipPath><clipPath id="g7jral"><path d="M399.304 186.358c0-.804 1.349-3.027 4.01-6.547l-1.584 8.528c-1.64-.548-2.426-1.221-2.426-1.981z"/></clipPath><clipPath id="g7jram"><path d="M427.06 227.732l-3.81-13.381c-13.984 4.087-21.574 1.284-22.554-8.443-.765-7.578.465-18.576 3.327-28.404 3.33-11.434 8.455-20.24 14.914-24.43 6.432-4.174 14.781-3.858 23.643.054 7.36 3.248 14.493 8.847 18.178 13.95 4.6 6.37 1.425 17.06-9.43 32.078l2.667 4.4c.071.117.05.27-.053.362l-26.412 23.949a.288.288 0 0 1-.47-.135z"/></clipPath><clipPath id="g7jran"><path d="M405.797 163.742l.01.001c.33.082-.157 4.2-1.279 8.702-1.121 4.503-2.624 8.367-2.954 8.284-.329-.082.158-4.2 1.28-8.702 1.11-4.455 2.593-8.286 2.943-8.285zm-4.282 17.556c.908 0 2.316-3.675 3.572-8.713 1.292-5.188 1.763-9.175.86-9.4-.904-.226-2.359 3.516-3.651 8.703-1.293 5.187-1.764 9.174-.86 9.4.026.007.052.01.079.01z"/></clipPath><clipPath id="g7jrao"><path d="M423.725 213.913a.29.29 0 0 0-.36-.197c-13.862 4.117-21.154 1.484-22.097-7.866-.757-7.5.465-18.424 3.308-28.185 3.294-11.314 8.354-20.008 14.674-24.108 6.244-4.051 14.397-3.743 23.098.097 7.269 3.208 14.32 8.743 17.943 13.76 4.419 6.12 1.27 16.644-9.54 31.559a.286.286 0 0 0-.013.318l2.642 4.36-25.893 23.478z"/></clipPath><clipPath id="g7jrap"><path d="M396.727 212.882c-2.31-6.58 5.535-16.132 10.477-20.083 4.941-3.95 7.699-6.382 6.91-13.523-.526-4.76 0-10.151 1.578-16.173-7.313-2.937-10.744-6.225-10.292-9.862.678-5.458 4.336-8.157 9.4-6.54 2.283.728 8.54-.024 15.235-.776 8.156-.916 16.965-1.832 20.046-.072 4.234 2.418 6.042 6.328 6.042 11.12 8.51-.47 10.395 8.028 10.091 16.707-.304 8.679-10.728 22.455-11.535 24.505-.808 2.05-3.93 1.555-10.209 0-6.278-1.555-10.366-8.062-12.883-17.029-2.516-8.967-8.866-3.998-11.722-1.88-2.856 2.118.663 12.697 5.022 23.309 4.358 10.611-3.497 16.615-10.774 19.275a11.83 11.83 0 0 1-4.08.723c-5.91 0-11.427-4.347-13.306-9.701z"/></clipPath><clipPath id="g7jraq"><path d="M422.218 177.939l-17.389-5.265a.288.288 0 0 1 .166-.552l17.39 5.265a.288.288 0 0 1-.167.552z"/></clipPath><clipPath id="g7jrar"><path d="M423.417 189.195l-.702-10.75c2.143-3.592 4.024-5.103 5.643-4.532 2.429.856 4.051 8.814 1.246 12.432-1.542 1.99-3.215 2.985-5.019 2.985-.383 0-.773-.045-1.168-.135z"/></clipPath><clipPath id="g7jras"><path d="M423.353 189.475a.288.288 0 0 1 .128-.561c2.135.485 4.09-.414 5.896-2.745 2.483-3.203 1.37-11.108-1.115-11.985-1.44-.507-3.221.924-5.3 4.408a.288.288 0 0 1-.494-.295c2.207-3.7 4.187-5.29 5.985-4.655 2.901 1.023 4.08 9.395 1.378 12.88-1.593 2.055-3.347 3.095-5.244 3.095a5.55 5.55 0 0 1-1.234-.142z"/></clipPath><clipPath id="g7jrat"><path d="M426.697 184.745a.289.289 0 0 1-.15-.378c1.064-2.487.906-4.144-.419-5.058a.288.288 0 0 1 .327-.474c1.594 1.1 1.78 3.049.62 5.759a.288.288 0 0 1-.378.151z"/></clipPath><clipPath id="g7jrau"><path d="M423.876 181.994a.287.287 0 0 1-.098-.394c1.959-3.255 3.518-4.53 4.733-3.612a.287.287 0 1 1-.346.459c-.79-.597-2.108.481-3.895 3.45a.288.288 0 0 1-.394.097z"/></clipPath><clipPath id="g7jrav"><path d="M374.035 265.663c-5.256-7.932-11.981-21.441-20.18-40.532-2.276-2.043-3.476-4.185-3.58-6.424-.103-2.22.847-5.134 2.84-8.758l.003-2.709c-.472-2.741-.472-4.593.026-5.59.507-1.017 1.438-1.111 2.65-.36.323-1.76.92-2.922 1.818-3.478.912-.563 2.066-.464 3.442.262.3-1.52.924-2.455 1.895-2.762.98-.31 2.344.021 4.11.967 1.214-1.888 2.463-3.04 3.759-3.441 1.015-.315 1.827.08 2.47 1.04.453.679.742 1.414 1.26 3.006.437 1.341.468 3.342.103 6.01.676-.45 1.289-.896 1.838-1.34.244-.197.257-.208.929-.767 1.92-1.6 2.917-2.262 4.16-2.545 3.897-.886 6.427.834 5.859 2.956-.096.355-.373.673-.827.999-.622.447-4.128 2.165-4.16 2.181-1.097.587-1.967 1.152-2.68 1.776-1.106.967-2.064 2.197-2.968 3.722a34.38 34.38 0 0 0-1.26 2.357l-.271.553-.13.267-.128.262c-.202.413-.346.7-.484.963-.749 1.43-2.684 4.072-5.813 7.939l22.751 26.725 4.08 7.368 45.17-28.899c.13-.083.3-.05.39.076l10.69 15.139a.288.288 0 0 1-.04.376l-24.363 22.713-36.064 15.526c-6.325-2.414-12.015-7.61-17.295-15.578z"/></clipPath><clipPath id="g7jraw"><path d="M374.514 265.344c-5.238-7.904-11.958-21.406-20.228-40.6-2.2-1.96-3.339-3.98-3.436-6.064-.097-2.105.833-4.949 2.84-8.656v-2.832c-.457-2.676-.457-4.433-.03-5.285.364-.73 1.027-.73 2.176.104a.288.288 0 0 0 .454-.19c.277-1.86.829-3.026 1.625-3.519.776-.48 1.837-.338 3.207.469.176.103.401-.003.43-.205.236-1.568.768-2.452 1.57-2.705.835-.264 2.14.076 3.896 1.052.134.074.302.03.384-.1 1.194-1.919 2.394-3.056 3.586-3.425 1.336-.415 2.013.598 3.013 3.674.436 1.34.436 3.471-.01 6.376-.038.245.23.42.438.287a26.82 26.82 0 0 0 2.421-1.723c.248-.2.26-.211.936-.773 1.848-1.54 2.798-2.17 3.92-2.425 3.525-.802 5.612.616 5.176 2.245-.054.198-.251.424-.607.68-.577.414-4.02 2.102-4.096 2.141-1.133.607-2.036 1.194-2.787 1.85-1.159 1.012-2.152 2.289-3.085 3.862a35.094 35.094 0 0 0-1.28 2.396l-.273.555-.13.268-.128.26c-.2.41-.341.692-.477.95-.736 1.408-2.707 4.09-5.9 8.029a.287.287 0 0 0 .005.368l22.873 26.86 4.197 7.59c.08.144.266.192.406.103l45.195-28.917 10.387 14.708-24.143 22.507-35.827 15.407c-5.943-2.388-11.51-7.493-16.698-15.322z"/></clipPath><clipPath id="g7jrax"><path d="M345.08 212.186l3.357-2.63.075-.042 41.89-16.09a.288.288 0 0 1 .372.165l.825 2.15a.289.289 0 0 1-.166.372l-41.89 16.09-.071.017-4.183.48a.319.319 0 0 1-.036.003c-.265 0-.394-.344-.174-.515z"/></clipPath><clipPath id="g7jray"><path d="M348.758 210.035l41.582-15.97.618 1.612-41.588 15.973-3.134.36z"/></clipPath><clipPath id="g7jraz"><path d="M365.905 202.478c-.16-1.592.274-3.499 1.304-5.332l4.59.484c-1.274 2.19-1.91 3.807-1.91 4.848 0 .861 1.246 5.462-.438 5.939a.813.813 0 0 1-.223.031c-1.61 0-3.2-4.752-3.323-5.97z"/></clipPath><clipPath id="g7jraA"><path d="M360.892 203.236c-.47-.843.21-3.664.611-5.758l4.38.728c-1.274 2.19-1.015 3.892-1.304 4.92-.213.754 3.131 5.14 1.448 5.617a.843.843 0 0 1-.23.032c-1.713 0-4.459-4.738-4.905-5.539z"/></clipPath><clipPath id="g7jraB"><path d="M353.6 209.514c-.672-.693-.463-3.328-.618-5.456h3.442c-.663 2.446-.164 3.602 0 3.952.353.752 4.183 2.644 2.681 3.54-.244.146-.537.21-.858.21-1.658 0-4.088-1.67-4.647-2.246z"/></clipPath><clipPath id="g7jraC"><path d="M356.477 207.212c-.673-.693-.25-3.701-.404-5.828l3.88.578c-.664 2.445-.4 3.124-.235 3.474.353.753 3.76 3.289 2.765 4.284-.147.146-.366.21-.636.21-1.56 0-4.8-2.132-5.37-2.718z"/></clipPath><clipPath id="g7jraD"><path d="M365.619 202.508c-.17-1.69.302-3.657 1.339-5.503a.288.288 0 1 1 .501.282c-.981 1.748-1.425 3.597-1.268 5.162.207 2.05 2.09 6.001 3.182 5.691.574-.162.772-1.118.626-2.715a20.613 20.613 0 0 0-.173-1.342l-.152-.952a4.652 4.652 0 0 1-.073-.653c0-1.107.652-2.761 1.95-4.993a.288.288 0 0 1 .496.29c-1.249 2.149-1.87 3.727-1.87 4.703 0 .097.02.275.065.565l.153.952c.081.521.138.957.176 1.377.171 1.873-.072 3.047-1.04 3.322a.931.931 0 0 1-.256.035c-1.59 0-3.426-3.943-3.656-6.221z"/></clipPath><clipPath id="g7jraE"><path d="M362.775 206.658a29.156 29.156 0 0 1-2.135-3.282c-.345-.62-.233-1.823.226-4.162l.098-.5.133-.66.124-.63a.287.287 0 1 1 .565.108l-.125.635-.133.66c-.037.19-.07.347-.098.498-.419 2.14-.53 3.334-.287 3.771a28.55 28.55 0 0 0 2.09 3.212c1.152 1.513 2.14 2.321 2.715 2.159.238-.068.316-.268.24-.702-.074-.427-.292-.987-.66-1.738a32.225 32.225 0 0 0-.249-.498c-1.124-2.202-1.082-2.11-.977-2.481.06-.214.096-.45.143-.902.197-1.858.405-2.735 1.19-4.085a.288.288 0 0 1 .497.29c-.734 1.26-.926 2.072-1.114 3.856-.051.484-.09.742-.163.997-.037.132.08.384.936 2.063.097.188.179.35.255.507.389.798.624 1.398.709 1.893.12.69-.072 1.19-.65 1.353-.103.03-.21.044-.318.044-.85 0-1.853-.885-3.012-2.406z"/></clipPath><clipPath id="g7jraF"><path d="M353.395 209.712c-.492-.507-.571-1.246-.63-3.912-.005-.183.026-1.55 0-1.917-.01-.12.018-.118.102-.115a.833.833 0 0 0 .095 0c.159-.011.366-.043.378.115.027.376-.026.93-.012 1.443l.012.461c.053 2.396.137 3.184.467 3.524 1.16 1.195 4.099 2.618 5.151 1.99.238-.142.263-.266.123-.51-.153-.267-.482-.591-.995-1.002a16.832 16.832 0 0 0-.384-.299l-.487-.368a17.42 17.42 0 0 1-.444-.346c-.327-.267-.519-.46-.607-.647a3.69 3.69 0 0 1-.336-1.284c-.077-.791.018-1.804.018-2.962 0-.177.2-.244.352-.202.154.042.203.05.203.353 0 1.23-.07 2.035 0 2.755.046.478.142.792.284 1.096.076.162.142.215 1.366 1.147.149.114.275.212.394.307.568.454.935.817 1.135 1.165.289.505.194.98-.327 1.292-.266.158-.6.228-.973.228-1.554 0-3.813-1.208-4.885-2.312z"/></clipPath><clipPath id="g7jraG"><path d="M356.274 207.41c-.464-.477-.509-1.172-.46-3.813.004-.16.005-.285.007-.408.01-.76.003-1.301-.032-1.785a.288.288 0 1 1 .574-.042c.037.505.045 1.06.033 1.836l-.007.41c-.043 2.335.006 3.102.297 3.402 1.12 1.153 4.97 3.134 5.597 2.505.272-.272-.043-.914-.938-1.892a19.494 19.494 0 0 0-.453-.477c-.09-.093-.72-.726-.875-.888-.303-.317-.475-.527-.557-.7-.328-.702-.335-1.634.218-3.674a.288.288 0 0 1 .556.152c-.521 1.919-.516 2.716-.253 3.277.046.097.194.277.452.547.15.157.776.788.87.883.175.18.326.338.466.491 1.116 1.22 1.535 2.073.92 2.688-.173.174-.447.25-.786.25-1.563 0-4.527-1.625-5.63-2.761z"/></clipPath><clipPath id="g7jraH"><path d="M367.987 263.677c-5.431-9.549-11.255-22.337-11.255-23.917v-2.985l-1.886-9.063a.288.288 0 0 1 .415-.314c3.379 1.76 6.071 2.441 8.066 2.058 1.95-.375 3.702-2.457 5.22-6.282a.288.288 0 0 1 .48-.088l4.604 5.044c1.424.543 2.289 1.006 2.627 1.428.298.374 6.878 8.681 19.749 24.931l7.724-4.945 36.992-22.138a.288.288 0 0 1 .383.081l10.691 15.139c.06.085.07.197.023.291l-17.295 35.544a.29.29 0 0 1-.197.155c-22.207 4.91-37.417 7.364-45.647 7.364-5.577 0-12.815-8.449-20.694-22.303z"/></clipPath><clipPath id="g7jraI"><path d="M368.487 263.392c-5.368-9.439-11.18-22.2-11.18-23.632l-.006-3.073-1.769-8.504c3.236 1.611 5.867 2.23 7.903 1.838 2.113-.406 3.928-2.487 5.475-6.21 2.94 3.212 4.425 4.823 4.453 4.833 1.364.516 2.19.955 2.445 1.274.298.374 6.937 8.754 19.91 25.133a.288.288 0 0 0 .38.064l7.936-5.082 36.756-21.996 10.439 14.781-17.161 35.265c-22.094 4.881-37.229 7.321-45.387 7.321-5.266 0-12.434-8.366-20.194-22.012z"/></clipPath><clipPath id="g7jraJ"><path d="M391.307 279.493c7.07-2.04 13.605-3.68 22.411-13.25 8.807-9.57 8.807-21.644 9.417-22.304 3.02-3.27 8.933-8.698 17.736-16.285l10.69 15.137-17.295 35.544c-22.188 4.905-37.383 7.357-45.585 7.357-6.28 0-12.012-1.975 2.626-6.2z"/></clipPath><clipPath id="g7jraK"><path d="M356.9 237.007a.286.286 0 0 1-.16-.195l-2.212-9.369a.287.287 0 0 1 .37-.339c2.082.693 4.24.607 6.487-.262 2.267-.877 4.71-2.582 7.325-5.116a.289.289 0 0 1 .436.041l4.568 6.516c.057.08.069.184.032.274-1.125 2.769-3.634 5.128-7.512 7.083-2.535 1.278-4.74 1.921-6.613 1.921-1.002 0-1.908-.184-2.72-.554z"/></clipPath><clipPath id="g7jraL"><path d="M357.267 236.54l-2.064-8.741c2.062.57 4.194.43 6.39-.42 2.275-.88 4.7-2.55 7.275-5.006l4.285 6.112c-1.095 2.562-3.483 4.779-7.178 6.64-2.465 1.244-4.582 1.86-6.351 1.86-.87 0-1.655-.149-2.357-.445z"/></clipPath><clipPath id="g7jraM"><path d="M362.455 236.839c-1.946-4.223-2.706-6.719-2.259-7.665.412-.87 1.19-1.787 2.334-2.755a.288.288 0 0 1 .372.44c-1.086.92-1.814 1.776-2.186 2.562-.336.71.41 3.162 2.261 7.177a.289.289 0 0 1-.26.408.288.288 0 0 1-.262-.167z"/></clipPath><clipPath id="g7jraN"><path d="M364.434 230.82a1.15 1.15 0 1 1 0 2.3 1.15 1.15 0 0 1 0-2.3zm0 2.877a1.726 1.726 0 1 0 0-3.452 1.726 1.726 0 0 0 0 3.452z"/></clipPath><clipPath id="g7jraO"><path d="M506.835 393.988c-4.532-.127-9.724-1.225-16.886-3.352a338.635 338.635 0 0 1-4.761-1.46l-3.388-1.061c-1.282-.4-2.32-.72-3.303-1.015-5.026-1.507-11.462-2.001-20.03-1.808-2.8.064-5.392.18-9.756.41-11.9.635-15.428.668-18.581-.183-1.367-.369-2.392-.687-3.195-.996-2.464-.949-3.172-1.999-2.412-3.714.326-.737.922-1.61 1.958-2.915.51-.642 2.73-3.337 3.407-4.169a3.88 3.88 0 0 0-.493-.205 36.55 36.55 0 0 0-.35-.127c-.15-.053-.266-.097-.38-.141-1.185-.462-1.782-.954-1.639-1.755.124-.69.636-1.29 2.214-2.842 1.436-1.413 1.971-2.05 2.052-2.568 2.244-14.2 2.914-25.647 2.011-34.334-.728-7.01-2.328-12.264-6.035-21.49-.104-.26-.21-.525-.351-.873l-.352-.873c-2.54-6.305-3.753-9.657-4.873-13.885-1.462-5.524-2.218-11.084-2.218-17.245 0-16.075 2.295-32.678 6.885-49.809.013-.045 10.03-6.65 30.052-19.817 6.38 2.775 13.745 8.945 22.382 18.489 14.449 15.966 21.32 39.701 17.78 68.308-1.748 14.13 7.914 52.87 15.218 64.741.681 1.106.803 1.825.742 3.148-.024.988.045 1.388.255 1.827.818 1.705 3.171 6.207 3.476 6.841.984 2.053 1.388 3.44 1.31 4.827-.038.7-.206 1.39-.513 2.102-.235.546-.168 1.084.18 1.72.275.505.323.567 1.517 1.99 2.357 2.81 2.79 4.75.545 7.57-2.56 3.216-6.452 4.676-11.655 4.676-.268 0-.538-.004-.813-.012z"/></clipPath><clipPath id="g7jraP"><path d="M480.372 415.638l-49.423-37.34 31.817-14.007 57.065 22.474c-1.491 12.004-5.723 20.228-12.696 24.67-5.092 3.245-11.224 4.867-18.393 4.867-2.649 0-5.438-.221-8.37-.664z"/></clipPath><clipPath id="g7jraQ"><path d="M506.852 393.413c-4.47-.124-9.622-1.215-16.74-3.329a332.493 332.493 0 0 1-4.752-1.457l-3.389-1.062c-1.284-.4-2.324-.72-3.309-1.016-5.096-1.528-11.585-2.027-20.208-1.832-2.808.064-5.404.178-9.773.411-11.803.63-15.336.663-18.4-.165-1.35-.364-2.358-.677-3.14-.977-2.192-.844-2.694-1.588-2.093-2.944.302-.679.877-1.52 1.884-2.79.532-.67 2.959-3.615 3.496-4.279.236-.29.079-.56-.244-.742a4.067 4.067 0 0 0-.591-.252 69.943 69.943 0 0 0-.353-.127 17.09 17.09 0 0 1-.366-.137c-.939-.365-1.355-.708-1.282-1.116.092-.51.603-1.108 2.098-2.58 1.514-1.49 2.06-2.14 2.17-2.842 2.251-14.246 2.924-25.739 2.015-34.483-.735-7.076-2.347-12.374-6.073-21.646l-.351-.873-.352-.874c-2.53-6.283-3.74-9.617-4.85-13.816-1.45-5.477-2.2-10.987-2.2-17.098 0-15.99 2.278-32.507 6.837-49.553l29.706-19.505c5.992 2.789 13.254 8.892 21.774 18.307 14.333 15.837 21.157 39.406 17.637 67.851-1.765 14.265 7.928 53.137 15.299 65.114.609.99.713 1.601.64 3.281-.01.627.074 1.112.328 1.64.823 1.717 3.176 6.22 3.475 6.843.947 1.971 1.326 3.276 1.255 4.545a5.542 5.542 0 0 1-.467 1.907c-.313.725-.223 1.444.202 2.223.303.556.35.614 1.583 2.085 2.201 2.624 2.572 4.282.535 6.84-2.437 3.062-6.163 4.46-11.206 4.46-.261 0-.527-.004-.795-.012z"/></clipPath><clipPath id="g7jraR"><path d="M431.964 237.213c-.329-1.818-.53-4.74-3.924-9.184-.178-.234-.89.954-2.13 3.563l-.78-2.078c7.241-8.417 13.15-14.068 17.727-16.953 4.577-2.884 8.334-4.576 11.27-5.072l4.708 1.702c-2.607 0-6.61 2.386-12.011 7.157-3.377 2.984-12.549 21.3-14.518 21.301-.171 0-.288-.138-.342-.436z"/></clipPath><clipPath id="g7jraS"><path d="M430.338 317.536c-4.19-12.18-10.577-22.398-10.577-40.15 0-24.072 37.738-42.209 50.658-27.932 12.457 13.765-34.987 68.317-39.734 68.313-.176 0-.294-.075-.347-.23z"/></clipPath><clipPath id="g7jraT"><path d="M479.057 384.289c-1.742-1.496-3.41-3.577-5.007-6.212-.365-.601-.243-1.104.236-1.758l.2-.263c.534-.696.652-1.031.409-1.536-.288-.597-.761-1.22-2.996-4.047l-.14-.178c-1.79-2.265-2.643-3.45-2.946-4.211-4.269-10.747-7.717-25.157-10.433-41.94-.357-2.204-.644-4.5-.865-6.879-.88-9.468-.695-19.589.146-29.276.157-1.805.326-3.443.494-4.882a109.425 109.425 0 0 1 .208-1.672c.038-.276.184-.385.341-.363a.288.288 0 0 1 .245.325c-.03.212-.044.326-.062.457-.048.377-.103.818-.161 1.32a167.29 167.29 0 0 0-.491 4.865c-.84 9.656-1.024 19.744-.147 29.172.22 2.367.505 4.65.86 6.84 2.709 16.747 6.15 31.12 10.4 41.82.272.684 1.124 1.865 2.862 4.067l.14.177c2.297 2.905 2.745 3.497 3.062 4.154.368.762.185 1.284-.47 2.137-.146.191-.144.188-.192.254-.357.487-.424.763-.209 1.118 1.57 2.587 3.2 4.622 4.89 6.074a.288.288 0 0 1-.374.437z"/></clipPath><clipPath id="g7jraU"><path d="M508.305 382.209c-1.216-1.238 4.153-3.445 4.123-4.764-.016-.726-4.556-1.115-5.952-1.084-3.057.07-7.009-2.01-9.66-4.088-3.823-2.996-4.945-5.992 3.206-2.555 6.094 2.57 9.04-.11 10.547-2.79 1.41-2.508 1.563-5.015 1.859-3.225.263 1.591 3.297 6.609 4.395 10.235.691 2.284-.618 3.151 0 4.98.686 2.029 1.53 2.375 1.53 3.291-.324.76-2.577 1.195-4.9 1.195-2.138 0-4.336-.37-5.148-1.195z"/></clipPath><clipPath id="g7jraV"><path d="M424.842 233.343v-9.585c0-.07.025-.135.07-.188 7.258-8.437 13.185-14.105 17.792-17.008 4.607-2.903 8.395-4.609 11.375-5.113a.288.288 0 0 1 .281.116l4.316 5.997a.288.288 0 0 1-.131.438c-4.16 1.57-8.285 4.14-12.379 7.71-4.087 3.564-8.325 9.487-12.71 17.768a.287.287 0 0 1-.466.059l-5.695-6.28-1.89 6.17a.277.277 0 0 1-.272.204.283.283 0 0 1-.291-.288z"/></clipPath><clipPath id="g7jraW"><path d="M427.382 226.496a.287.287 0 0 0-.488.109l-1.477 4.818v-7.558c7.193-8.353 13.06-13.96 17.594-16.816 4.456-2.809 8.122-4.475 10.988-5.001l3.993 5.548c-4.108 1.606-8.176 4.166-12.204 7.68-4.089 3.565-8.301 9.422-12.647 17.57z"/></clipPath><clipPath id="g7jraX"><path d="M458.202 229.795c-3.63-5.592-8.266-9.795-13.91-12.613a.287.287 0 1 1 .257-.515c5.737 2.865 10.45 7.138 14.135 12.815a.288.288 0 1 1-.482.313z"/></clipPath><clipPath id="g7jraY"><path d="M98.367 452.649c-10.704-1.934-17.98-8.321-21.825-19.16l56.747-30.763c19.633 7.085 40.63 10.627 62.99 10.627 33.54 0-2.864 21.514-35.126 34.463-15.941 6.397-27.536 8.361-37.125 8.361-9.82 0-17.537-2.06-25.661-3.528z"/></clipPath><clipPath id="g7jraZ"><path d="M75.442 435.421c-2.853-.782-3.289-5.985-1.97-13.892.984-5.916 3.008-12.99 4.122-14.892 1.497-2.554 1.942-8.037 1.942-16.41 0-3.051 1.819-7.451 5.45-13.223-1.475-6.518-.454-12.533 3.06-18.03 2.223-3.478 2.533-6.5 2.376-17.031-.186-12.376.207-20.208 2.211-31.705 3.305-18.96 10.052-30.623 20.27-34.958l17.604-13.32a.288.288 0 0 1 .287-.035l23.279 9.967c-2.784 7.844-2.17 14.754 1.996 21.131 4.257 6.517 7.31 24.835 9.19 55.077l-4.242 35.342-12.284 30.803c-19.077 10.29-31.527 16.495-37.493 18.766-5.528 2.104-16.757 3.299-25.566 3.3-4.304 0-8.03-.286-10.232-.89z"/></clipPath><clipPath id="g7jrba"><path d="M75.595 434.866c-2.398-.658-2.818-5.67-1.557-13.242.974-5.852 2.982-12.87 4.053-14.696 1.575-2.687 2.02-8.183 2.02-16.7 0-2.933 1.806-7.281 5.461-13.236-1.478-6.414-.493-12.31 2.958-17.708 2.31-3.613 2.627-6.69 2.467-17.35-.185-12.343.206-20.143 2.203-31.597 3.277-18.807 9.94-30.308 20.021-34.576l17.5-13.24 22.87 9.79c-2.89 7.547-2.224 14.566 1.997 21.027 4.18 6.398 7.223 24.67 9.098 54.746l-4.236 35.251-12.211 30.6c-18.872 10.1-31.278 16.282-37.204 18.538-5.462 2.08-16.642 3.262-25.378 3.262-4.241 0-7.908-.279-10.062-.87z"/></clipPath><clipPath id="g7jrbb"><path d="M159.726 354.23c-10.863-6.179-31.68-21.913-34.365-35.669 6.705-6.352 12.26-27.968 25.236-19.665 9.237 5.909 20.672 35.251 15.616 44.994-1.85 3.564-3.099 10.59-5.634 10.591-.27 0-.553-.08-.853-.25z"/></clipPath><clipPath id="g7jrbc"><path d="M79.818 391.904c.005-.604.006-1.168.006-1.677m2.294 28.734c11.223 0 31.689-5.548 32.635-10.512.852-4.465-19.173-2.478-29.74-6.535-4.082-1.567-5.018-7.09-5.195-10.01-.034 4.743-.284 11.993-1.976 14.878-.658 1.124-1.843 4.665-2.869 8.885-.569 2.341 2.496 3.294 7.145 3.294z"/></clipPath><clipPath id="g7jrbd"><path d="M81.327 384.273c1.026-4.22-.386 0 4.268-7.952 0 5.238 5.975 5.15 10.773 5.063 3.414-.062 6.232-.125 5.879 1.732-.742 3.887-7.672 6.275-13.38 6.275-4.6 0-8.406-1.551-7.54-5.118z"/></clipPath><clipPath id="g7jrbe"><path d="M176.255 259.922l2.891-9.788c.97 5.15 1.234 8.157.793 9.023-.313.614-1.02.92-2.124.92-.454 0-.974-.051-1.56-.155z"/></clipPath><clipPath id="g7jrbf"><path d="M179.081 251.372c.773 4.345.966 6.938.602 7.655-.345.676-1.35.92-3.06.664zm-2.877 8.833c.6.106 1.137.16 1.612.16 1.209 0 2.009-.35 2.38-1.077.484-.953.219-3.968-.767-9.207-.056-.296-.473-.318-.559-.029l-2.891 9.788a.288.288 0 0 0 .225.365z"/></clipPath><clipPath id="g7jrbg"><path d="M151.872 271.683l2.282-45.187 22.323-12.657c4.812 1.566 6.184 10.689 4.116 27.368-3.102 25.019-9.527 36.29-12.978 37.304a3.22 3.22 0 0 1-.906.116c-2.635 0-7.58-2.314-14.837-6.944z"/></clipPath><clipPath id="g7jrbh"><path d="M176.506 214.153c4.518 1.617 5.834 10.625 3.802 27.019-1.428 11.51-3.65 20.845-6.34 27.582-2.22 5.559-4.649 8.956-6.435 9.481-2.17.638-7.334-1.593-15.365-6.705l2.265-44.86zm-24.789 57.772c7.297 4.656 12.268 6.989 15 6.989.366 0 .693-.043.979-.127 2.013-.59 4.524-4.106 6.806-9.82 2.71-6.785 4.944-16.169 6.376-27.725 2.086-16.822.699-26.046-4.313-27.677a.286.286 0 0 0-.23.024l-22.323 12.657a.288.288 0 0 0-.146.236l-2.281 45.186a.288.288 0 0 0 .132.257z"/></clipPath><clipPath id="g7jrbi"><path d="M100.18 284.714c-5.687-2.269-3.976-10.96-3.364-13.858-1.592 0-5.552-2.624-5.91-8.486-.24-3.909 2.852-8.34 9.273-13.292-3.09-3.29-2.348-6.836 2.228-10.636 6.864-5.7 5.363-4.071 14.366-22.964 3.863-8.104 8.558-18.78 14.57-21.799 5.633-2.828 12.165-3.955 15.957-.972 10.435-7.941 20.34 5.703 21.843 7.053 1.504 1.35 4.795 5.253 12.578 11.276 5.188 4.014 4.915 12.52-.82 25.518.1-5.851.1-9.685 0-11.503-.321-5.88-1.031-7.286-1.031-6.695 0 1.297-6.272 4.765-6.848 7.292-.576 2.527.513 4.367-3.879 10.906-4.39 6.539 3.82 18.281 1.872 22.848-1.95 4.566-6.368 4.758-4.565 9.218 1.802 4.46 6.798 4.46 3.813 12.995-2.984 8.534-19.79-1.31-23.015-1.31-3.224 0-5.204 3.136-11.879 3.802-3.082.308-5.912-1.409-8.7-3.126-3.247-2-6.436-4.002-9.896-2.797-5.309 1.849-7.523 7.35-12.795 7.35-1.11 0-2.359-.245-3.799-.82z"/></clipPath><clipPath id="g7jrbj"><path d="M180.365 244.969c.64-4.56 1.815-8.39 2.326-8.39h.014c.502.071.585 4.109-.062 8.71-.646 4.602-1.837 8.461-2.34 8.39-.503-.07-.585-4.107.062-8.71zm-.142 9.28c.02.003.04.005.06.005 1.055 0 2.219-3.825 2.93-8.885.724-5.156.642-9.21-.429-9.36-1.07-.15-2.265 3.723-2.989 8.88-.724 5.157-.642 9.21.428 9.36z"/></clipPath><clipPath id="g7jrbk"><path d="M182.385 245.48l-15.496-.729a.288.288 0 0 1 .027-.575l15.496.73a.287.287 0 1 1-.027.575z"/></clipPath><clipPath id="g7jrbl"><path d="M129.58 421.156l-1.07-7.38a.287.287 0 0 1 .07-.232c2.052-2.332 2.052-7.06-.06-14.178-2.154-7.258-1.085-31.626 3.197-73.207a.288.288 0 1 1 .572.059c-4.271 41.472-5.34 65.834-3.217 72.985 2.134 7.194 2.162 12.064.027 14.619l1.05 7.251a.288.288 0 1 1-.569.083z"/></clipPath><clipPath id="g7jrbm"><path d="M139.216 394.691a.288.288 0 0 1-.256-.42l57.54-111.87c.033-.064 64.23-.116 192.594-.156.054 0 33.215 37.322 99.485 111.968a.288.288 0 0 1-.216.478z"/></clipPath><clipPath id="g7jrbn"><path d="M139.687 394.116l57.244-111.296h192.033l98.76 111.296z"/></clipPath><clipPath id="g7jrbo"><path d="M142.092 418.664a.288.288 0 0 1-.288-.288v-24.175c0-.16.13-.288.288-.288H485.53c.159 0 .287.129.287.288v24.175c0 .16-.128.288-.287.288z"/></clipPath><clipPath id="g7jrbp"><path d="M142.38 418.089v-23.6H485.24v23.6z"/></clipPath><clipPath id="g7jrbq"><path d="M142.092 405.713v-5.756H485.53v5.756z"/></clipPath><clipPath id="g7jrbr"><path d="M139.216 400.244a.287.287 0 0 1-.288-.287V394.2c0-.16.129-.288.288-.288h349.147c.16 0 .288.129.288.288v5.756c0 .16-.129.287-.288.287z"/></clipPath><clipPath id="g7jrbs"><path d="M139.503 399.67v-5.181h348.573v5.18z"/></clipPath><clipPath id="g7jrbt"><path d="M322.578 290.965a.287.287 0 0 1-.136-.21l-2.876-22.837a.287.287 0 0 1 .285-.323h20.135c.172 0 .307.152.285.323l-2.877 22.837a.287.287 0 0 1-.136.21c-2.57 1.556-5.017 2.338-7.34 2.338-2.322 0-4.77-.782-7.34-2.338z"/></clipPath><clipPath id="g7jrbu"><path d="M322.995 290.545l-2.818-22.374h19.482l-2.818 22.374c-2.441 1.456-4.749 2.182-6.923 2.182-2.174 0-4.481-.726-6.923-2.182z"/></clipPath><clipPath id="g7jrbv"><path d="M319.276 270.249v-2.879c0-.953.772-1.726 1.725-1.726h17.834c.953 0 1.726.773 1.726 1.726v2.879z"/></clipPath><clipPath id="g7jrbw"><path d="M322.152 266.22a2.877 2.877 0 0 1 2.876-2.879h9.78a2.877 2.877 0 0 1 2.876 2.878z"/></clipPath><clipPath id="g7jrbx"><path d="M244.342 300.75a.287.287 0 0 1-.137-.21l-2.876-22.836a.287.287 0 0 1 .285-.324h20.135c.173 0 .307.152.285.324l-2.877 22.836a.29.29 0 0 1-.136.21c-2.57 1.557-5.017 2.338-7.34 2.338-2.322 0-4.77-.781-7.34-2.337z"/></clipPath><clipPath id="g7jrby"><path d="M244.758 300.33l-2.818-22.374h19.483l-2.82 22.374c-2.44 1.457-4.748 2.183-6.922 2.183-2.174 0-4.48-.726-6.923-2.183z"/></clipPath><clipPath id="g7jrbz"><path d="M241.039 280.034v-2.878c0-.954.772-1.727 1.726-1.727h17.833c.953 0 1.726.773 1.726 1.727v2.878z"/></clipPath><clipPath id="g7jrbA"><path d="M243.915 276.005a2.877 2.877 0 0 1 2.877-2.879h9.78a2.878 2.878 0 0 1 2.875 2.879z"/></clipPath><clipPath id="g7jrbB"><path d="M247.38 301.618c-.716-.399-1.712-1.109-2.997-2.13l-4.455-.002c-2.595.25-4.682.375-6.261.375-2.726 0-9.339-3.881-11.92-7.295-3.959-5.239-10.047-13.657-18.262-25.256-6.968-10.634-10.54-21.453-10.716-32.46-.246-15.425 3.307-34.872 9.311-53.233 2.185-6.68 5.447-9.07 11.608-10.285.405-.08.667-.129 1.481-.277a50.902 50.902 0 0 0 2.16-.425c1.151-.257 2.237-.759 3.825-1.68.038-.023 1.265-.743 1.595-.927.583-.326 1.048-.555 1.48-.718 1.084-.411 1.949-.386 2.668.188 3.458 2.757 4.39 10.58 2.874 23.51l-19.584 45.603 6.664 25.262 10.972 22.549c7.584-1.133 12.11-1.699 13.612-1.699 1.98 0 5.805 1.469 8.645 3.057.974.678 2.445 2.077 3.62 3.415.579.66 1.03 1.246 1.288 1.675.15.251.238.454.257.622.034.29-.147.509-.447.509-.747 0-2.672-.969-5.91-2.941-2.363-.15-4.042-.253-5.023-.308.458.247 1.14.567 2.218 1.058.206.094.358.163.506.232 1.38.636 2.146 1.052 2.584 1.46 1.27 1.182 3.11 5.858 2.451 6.712-.364.471-.89.187-1.56-.59-.558-.647-1.29-1.721-2.199-3.225a179.293 179.293 0 0 0-3.63-1.644 91.319 91.319 0 0 0 3.437 1.913c2.875 3.767 3.882 5.613 3.053 6.09-.739.425-2.224-.778-4.771-3.639-.602-.231-1.144-.436-1.626-.614.47.222 1.005.466 1.6.733 2.413 2.416 3.405 3.793 3.095 4.473a.513.513 0 0 1-.507.323c-.286 0-.667-.149-1.137-.411z"/></clipPath><clipPath id="g7jrbC"><path d="M247.66 301.115c-.697-.388-1.697-1.103-3.177-2.203H239.9c-2.606.25-4.675.374-6.233.374-2.529 0-8.981-3.787-11.46-7.067-3.956-5.232-10.039-13.645-18.25-25.238-6.902-10.536-10.439-21.248-10.613-32.14-.245-15.354 3.297-34.74 9.283-53.045 2.113-6.46 5.2-8.722 11.172-9.899.402-.08.662-.128 1.473-.275a52.64 52.64 0 0 0 2.182-.43c1.226-.273 2.356-.797 3.995-1.748 3.47-2.014 4.132-2.264 5.089-1.501 3.237 2.58 4.153 10.244 2.667 22.951-13.078 30.467-19.611 45.722-19.6 45.763l6.71 25.41 11.083 22.791a.288.288 0 0 0 .301.16c7.672-1.149 12.263-1.724 13.736-1.724 1.853 0 5.606 1.44 8.34 2.969.906.631 2.346 2 3.493 3.308.557.635.99 1.196 1.354 1.829-.747-.15-2.615-1.117-5.627-2.915-3.823-.242-5.849-.362-6.131-.362a.288.288 0 0 0-.201.494c.44.431 1.057.744 3.181 1.712l.504.23c1.318.608 2.058 1.01 2.433 1.36 1.077 1.002 2.802 5.382 2.333 5.893-.148-.08-.357-.27-.614-.568-.542-.63-1.272-1.705-2.313-3.336-3.65-1.694-5.51-2.488-5.891-2.488-.211 0-.35.22-.26.411.217.457 1.904 1.491 5.31 3.31 2.338 3.105 3.35 4.965 3.093 5.112-.343.197-1.818-1.004-4.214-3.652-2.72-1.045-4.192-1.547-4.584-1.547a.288.288 0 0 0-.22.474c.299.356 1.664 1.062 4.223 2.208 2.036 2.068 2.998 3.404 2.77 3.7-.168-.03-.424-.136-.755-.32z"/></clipPath><clipPath id="g7jrbD"><path d="M199.96 263.112c-3.314-6.795-12.556-23.977-12.667-30.941-.004-.23-.006-.459-.005-.688.003-16.553 9.614-33.105 15.066-49.777 2.65-8.103 7.202-12.572 11.78-14.588l7.787-1.243c1.939.237 3.612.898 4.797 1.843 3.012 2.401 4.23 6.92 4.228 12.17 0 3.505-.545 7.337-1.46 11.082-1.524 6.235-8.059 21.44-19.603 45.614 4.52 14.694 6.779 23.03 6.776 25.01 0 .195-.023.328-.067.4-1.532 2.468-6.052 4.266-10.07 4.266-2.864 0-5.473-.913-6.562-3.148z"/></clipPath><clipPath id="g7jrbE"><path d="M199.702 263.238c-.09-.183-4.287-8.543-5.752-11.598a211.401 211.401 0 0 1-1.853-3.963c-3.231-7.115-5.042-12.362-5.092-15.501a65.852 65.852 0 0 1-.005-.707c.003-5.354.99-10.953 2.904-17.283 1.468-4.853 2.913-8.666 6.483-17.507 3.007-7.446 4.32-10.865 5.693-15.062 2.451-7.496 6.703-12.456 11.938-14.762a.287.287 0 1 1 .231.526c-5.08 2.238-9.22 7.069-11.622 14.415-1.378 4.214-2.695 7.64-5.707 15.099-3.564 8.824-5.004 12.627-6.465 17.458-1.899 6.28-2.877 11.824-2.88 17.116a43.095 43.095 0 0 0 .005.697c.049 3.03 1.843 8.233 5.04 15.272a209.94 209.94 0 0 0 1.848 3.953c1.462 3.049 5.66 11.408 5.75 11.595 1.142 2.341 4.228 3.338 8.022 2.88 3.548-.428 6.89-2.062 8.108-4.024.031-.052.047-.15.048-.294.004-1.748-2.303-10.3-6.788-24.88 11.55-24.361 18.08-39.558 19.598-45.767.97-3.97 1.466-7.715 1.462-11.03-.005-5.434-1.35-9.712-4.13-11.928-1.157-.922-2.79-1.554-4.652-1.782a.288.288 0 0 1 .07-.572c1.963.24 3.696.911 4.94 1.904 2.944 2.345 4.348 6.786 4.35 12.393.001 3.365-.502 7.149-1.48 11.152-1.53 6.255-8.051 21.433-19.575 45.568 4.531 14.734 6.736 22.84 6.734 25.02 0 .252-.03.424-.089.52-1.324 2.134-4.822 3.845-8.527 4.292-.623.075-1.23.112-1.815.113-3.18 0-5.718-1.11-6.792-3.313z"/></clipPath><clipPath id="g7jrbF"><path d="M201.354 267.57c-2.813-.455-4.52-2.279-5.55-5.176a19.606 19.606 0 0 1-.625-2.212c-.056-.246-.327-1.503-.397-1.787-.107-.433-.2-.702-.293-.841-.25-.376-.574-.699-1.98-2.029l-.162-.153c-1.134-1.077-1.704-1.687-1.962-2.182-1.02-1.963.225-5.105 2.148-6.008a.287.287 0 0 1 .37.113c1.245 2.089 2.628 3.155 4.366 3.527 1.348.288 2.33.224 5.552-.213.811-.109 1.35-.176 1.92-.234 1.96-.2 3.271-.68 4.613-1.522.24-.152 1.088-.72 1.285-.844.897-.562 1.625-.827 2.587-.854 1.653-.047 3.403.881 4.06 2.633.202.542.193 1.074.053 2.418l-.012.113c-.1.963-.116 1.448-.029 1.884.1.5.293.801.798 1.363l.067.075c.913 1.014 1.213 1.75 1.009 3.262-.391 2.905-3.381 5.283-7.95 6.957-3.03 1.11-6.56 1.784-8.766 1.784-.42 0-.79-.024-1.102-.074z"/></clipPath><clipPath id="g7jrbG"><path d="M201.446 267.001c-2.574-.415-4.135-2.082-5.1-4.8a19.18 19.18 0 0 1-.606-2.148c-.054-.238-.327-1.501-.4-1.796-.122-.495-.232-.811-.373-1.022-.287-.432-.6-.744-2.063-2.128l-.16-.152c-1.079-1.023-1.633-1.617-1.848-2.031-.823-1.582.144-4.193 1.655-5.1 1.29 2.07 2.763 3.168 4.597 3.56 1.441.309 2.453.242 5.75-.204a56.85 56.85 0 0 1 1.902-.233c2.052-.21 3.446-.72 4.859-1.607.251-.158 1.099-.726 1.286-.843.816-.512 1.45-.742 2.297-.766 1.428-.04 2.944.764 3.505 2.26.157.42.149.916.02 2.156l-.012.113c-.106 1.022-.123 1.543-.021 2.055.126.627.366 1.003.934 1.636l.068.074c.809.9 1.045 1.476.866 2.801-.354 2.63-3.19 4.886-7.577 6.493-2.977 1.09-6.45 1.75-8.563 1.75a6.52 6.52 0 0 1-1.017-.068z"/></clipPath><clipPath id="g7jrbH"><path d="M415.551 309.798l-76.23-10.062c-2.292-1.009-4.154-1.258-5.67-.787-8.064 2.507-14.043.695-17.841-3.229-1.59-1.643-1.77-3.413-1.387-8.275.027-.332.023-.92-.003-2.229-.033-1.68-.035-2.192.006-2.455.041-.26.189-.479.545-.904.377-.449.499-.63.495-.708-.035-.81-.273-1.429-.885-2.551l-.17-.313c-.065-.12-.118-.22-.167-.315-.596-1.151-.78-1.988-.493-2.992.365-1.279 1.65-2.37 3.51-3.283 1.23-.603 2.85-1.15 3.084-1.077.3.095.3.115.296 1.05-.004.595.007.914.058 1.288.098.718.33 1.236.739 1.539 1.705 1.262 3.44 2.335 4.89 3.055.633.315 1.178.544 1.576.668.184.056.33.088.427.095.802-1.103.82-3.082-.023-4.371-1.33-2.032-1.745-3.767-1.407-5.122.26-1.044 1.014-1.8 1.648-1.8.56 0 1.126.445 1.884 1.348.416.497 2.036 2.667 2.1 2.748.45.584.85 1.069 1.245 1.504a9.486 9.486 0 0 1 1.581 2.376c.74 1.577.918 2.546 1.194 5.234.09.877.184 1.234.289 1.28.883.393 2.349.732 4.35 1.01h57.353c.098 0 .19.05.242.132l17.044 26.706a.288.288 0 0 1-.28.44z"/></clipPath><clipPath id="g7jrbI"><path d="M339.437 299.17c-2.313-1.024-4.3-1.285-5.957-.77-7.847 2.439-13.604.694-17.257-3.08-1.426-1.474-1.595-3.144-1.226-7.83.029-.36.024-.946-.004-2.381-.029-1.495-.032-2.05.001-2.257.018-.113.14-.294.456-.67.475-.566.603-.757.59-1.058-.038-.922-.303-1.607-.953-2.802-.086-.157-.132-.24-.17-.312a15.321 15.321 0 0 1-.162-.306c-.536-1.032-.689-1.734-.45-2.568.307-1.078 1.483-2.076 3.21-2.924a16.063 16.063 0 0 1 2.548-.983c.004.087.004.204.002.435-.003.622.008.962.064 1.37.117.857.411 1.511.967 1.923 3.518 2.606 7.196 4.435 7.686 3.755.957-1.331.985-3.59.007-5.085-1.248-1.908-1.625-3.483-1.33-4.667.202-.81.754-1.364 1.09-1.364.326 0 .794.368 1.442 1.142.405.482 2.014 2.638 2.086 2.73.46.595.868 1.092 1.276 1.54a8.91 8.91 0 0 1 1.486 2.233c.702 1.497.873 2.425 1.142 5.048.12 1.162.225 1.569.627 1.747.944.42 2.456.77 4.546 1.056l57.234.003 16.626 26.051z"/></clipPath><clipPath id="g7jrbJ"><path d="M351.151 302.561c-1.506-.193-2.286-.74-2.339-1.64l-9.622-1.45c-.42-4.64-.42-8.266 0-10.88.422-2.613 1.216-4.828 2.385-6.647l10.806.863c1.033-.778 2.396-1.423 4.092-1.936 1.695-.513 17.37-.155 47.027 1.073 23.37-27.651 37.695-43.534 42.977-47.648 7.922-6.17 17.577-6.313 23.117 3.214l3.535 15.164c-.27 6.124-2.274 12.665-5.92 19.183-6.917 12.367-37.673 33.958-51.62 37.655-2.108.56-5 .797-8.396.797-19.08 0-54.123-7.501-56.042-7.748z"/></clipPath><clipPath id="g7jrbK"><path d="M403.47 282.245a.288.288 0 1 1 0-.576h5.375a.288.288 0 0 1 0 .576z"/></clipPath><clipPath id="g7jrbL"><path d="M385.163 308.721a424.612 424.612 0 0 1-13.044-2.005c-7.708-1.3-21.33-3.911-21.005-3.87-1.504-.193-2.386-.746-2.56-1.674l-9.406-1.417a.289.289 0 0 1-.244-.258c-.423-4.662-.423-8.31.003-10.951.427-2.65 1.235-4.904 2.426-6.758.039-.059 3.693.182 10.964.723 1.05-.77 2.414-1.408 4.093-1.916 1.743-.527 17.286-.173 46.982 1.056 23.333-27.607 37.63-43.455 42.928-47.582 8.65-6.738 18.23-5.84 23.542 3.296a.287.287 0 1 1-.497.29c-5.123-8.81-14.297-9.67-22.692-3.132-5.258 4.096-19.582 19.977-42.933 47.607-29.757-1.121-45.52-1.48-47.164-.983-1.665.504-2.999 1.135-4.002 1.89-.037.028-3.647-.236-10.828-.792-1.097 1.756-1.848 3.886-2.252 6.393-.41 2.542-.416 6.072-.017 10.581l9.397 1.417c.135.02.237.131.245.267.043.731.703 1.195 2.09 1.373-.306-.04 13.332 2.576 21.026 3.872 4.537.765 8.89 1.438 13.027 2.003 14.406 1.97 24.995 2.482 30.273 1.083 14.458-3.832 44.814-25.664 51.444-37.518 3.612-6.459 5.613-12.958 5.882-19.055a.288.288 0 0 1 .575.026c-.272 6.19-2.3 12.776-5.955 19.31-6.71 11.997-37.196 33.923-51.799 37.794-2.074.55-4.93.81-8.486.81-5.667.001-13.111-.662-22.013-1.88z"/></clipPath><clipPath id="g7jrbM"><path d="M348.769 301.204l-9.621-1.449a.289.289 0 0 1-.244-.258c-.423-4.662-.423-8.31.003-10.951.427-2.65 1.235-4.904 2.426-6.758a.288.288 0 0 1 .265-.13l10.806.862c.354.028.354.545 0 .573-1.472.119-2.599 1.944-3.31 5.554-.727 3.69-.727 7.764.001 12.227a.287.287 0 0 1-.326.33z"/></clipPath><clipPath id="g7jrbN"><path d="M339.457 299.22c-.399-4.51-.392-8.04.017-10.582.404-2.507 1.155-4.637 2.252-6.393l9.359.747c-1.148.818-1.99 2.677-2.556 5.544-.72 3.652-.74 7.666-.063 12.04z"/></clipPath><clipPath id="g7jrbO"><path d="M251.394 317.448l10.957-36.728a2.3 2.3 0 0 1 2.453-1.63l48.274 5.25a2.302 2.302 0 0 1 1.955 2.948l-10.714 35.916z"/></clipPath><clipPath id="g7jrbP"><path d="M301.517 320.79l-46.672-5.472 9.068-32.621a1.15 1.15 0 0 1 1.225-.837l46.416 4.766a1.152 1.152 0 0 1 .982 1.483l-9.785 31.876a1.151 1.151 0 0 1-1.234.805z"/></clipPath><clipPath id="g7jrbQ"><path d="M218.572 329.508a.288.288 0 0 1-.253-.331l.554-3.54a.288.288 0 0 1 .242-.24l32.391-4.782 52.926 2.331a.288.288 0 0 1 .274.287v3.425c0 .132-.09.247-.217.28l-32.89 8.319z"/></clipPath><clipPath id="g7jrbR"><path d="M218.934 328.968l.475-3.032 32.127-4.75 52.595 2.323v2.925l-32.623 8.252z"/></clipPath><clipPath id="g7jrbS"><path d="M218.572 326.054c-.318-.035-.35-.487-.04-.565l32.89-8.32 53.028 5.75c.319.034.35.486.039.565l-32.89 8.319z"/></clipPath><clipPath id="g7jrbT"><path d="M220.224 325.654l31.29-7.914 51.284 5.578-31.29 7.914z"/></clipPath><clipPath id="g7jrbU"><path d="M277.578 328.31l-34.813-4.581 11.894-4.554 37.54 4.31a.576.576 0 0 1 .083 1.129l-13.588 3.624a2.908 2.908 0 0 1-1.116.073z"/></clipPath><clipPath id="g7jrbV"><path d="M226.907 329.02l-9.18-1.786a.285.285 0 0 1-.167-.099c-4.404-5.32-5.08-8.747-1.789-10.089 5.642-2.298 14.201-4.813 17.243-4.813 2.343 0 5.961 1.615 10.866 4.824 3.005 1.543 5.058 2.767 6.17 3.68 1.234 1.016 1.444 1.875.332 2.235-1.67.54-6.21-.281-13.733-2.453-.223 1.43-.065 2.327.422 2.707.483.375 1.044.72 1.702 1.06.033.018 3.383 1.51 3.717 1.898.273.316.242.68-.089.98-1.392 1.264-5.73 1.874-13.138 1.874-.753 0-1.539-.006-2.356-.019z"/></clipPath><clipPath id="g7jrbW"><path d="M226.966 328.449l-9.028-1.76c-4.132-5.015-4.702-7.987-1.95-9.11 5.575-2.27 14.083-4.77 17.026-4.77 2.197 0 5.736 1.579 10.578 4.745 2.997 1.54 5.022 2.748 6.092 3.629.947.779 1.021 1.079.521 1.24-1.531.496-6.14-.348-13.706-2.547a.287.287 0 0 0-.363.224c-.332 1.804-.159 3.002.582 3.58.513.4 1.103.763 1.791 1.118.19.099 3.31 1.489 3.546 1.762.064.074.063.084-.04.179-1.251 1.135-5.552 1.727-12.818 1.727-.715 0-1.459-.006-2.23-.017z"/></clipPath><clipPath id="g7jrbX"><path d="M168.98 335.39a.286.286 0 0 1-.175-.264c0-4.765-.196-7.985-.627-11.982.021.199-.257-2.331-.325-2.999-.208-2.064-.305-3.719-.305-5.653 0-.158.129-.287.288-.287 2.347 0 4.836.036 18.687.25l1.725.027c9.912.152 15.564.223 18.892.223 1.496 0 2.475.496 3.14 1.371.231.305.653 1.087.679 1.12 2.532.091 4.214-.021 4.94-.317 1.683-.685 2.786-.09 3.138 1.695.327 1.657.042 4.407-.847 8.274a.286.286 0 0 1-.234.22l-6.087.982c.071 1.433-.538 2.304-1.8 2.508-1.497.241-3.328.594-5.968 1.141-.852.177-5.88 1.235-7.407 1.55a312.2 312.2 0 0 1-6.003 1.185c-6.526 1.215-11.71 1.877-15.606 1.877-2.605 0-4.634-.296-6.105-.92z"/></clipPath><clipPath id="g7jrbY"><path d="M168.75 323.087a.35.35 0 0 1 0-.004m0 .005v.002m.63 11.843c1.38.543 3.277.802 5.694.802 3.845 0 9.01-.656 15.512-1.867 1.838-.341 3.764-.723 5.992-1.183 1.526-.314 6.553-1.373 7.407-1.55 2.647-.548 4.485-.902 5.992-1.146 1.013-.163 1.435-.838 1.298-2.15a.287.287 0 0 1 .24-.315l6.158-.994c.837-3.693 1.101-6.315.8-7.845-.282-1.429-1.01-1.822-2.357-1.273-.829.337-2.562.453-5.189.383-.174-.005-.307-.096-.423-.247-.064-.081-.487-.867-.682-1.124-.556-.733-1.367-1.143-2.682-1.143-3.333 0-8.985-.071-18.9-.224l-1.726-.026c-13.278-.206-16.113-.247-18.39-.25.009 1.79.106 3.365.302 5.306.066.652.334 3.093.324 3.004.427 3.957.625 7.163.63 11.841z"/></clipPath><clipPath id="g7jrbZ"><path d="M246.47 331.834a.289.289 0 0 1-.146-.094c-4.404-5.32-5.08-8.747-1.79-10.089 1.176-.478 2.34-1.057 3.8-1.864.469-.26 2.02-1.134 2.07-1.162a38.982 38.982 0 0 1 1.92-1.021c1.389-.68 2.458-1.02 3.401-1.02 1.88 0 7.48 1.683 16.884 5.064l.075.04c4.474 3.322 6.333 5.237 5.61 6.133-.661.82-3.385.288-8.483-1.507-2.548.225-4.107.499-4.611.795-2.445 1.44-6.72 5.051-6.868 5.141-.428.263-.84.441-1.273.544-.828.197-1.763.295-2.801.295-2.147 0-4.741-.42-7.788-1.255z"/></clipPath><clipPath id="g7jrca"><path d="M246.709 331.303c-4.138-5.02-4.712-7.996-1.957-9.119 1.2-.488 2.381-1.077 3.859-1.893.473-.261 2.025-1.137 2.074-1.163a38.667 38.667 0 0 1 1.89-1.007c1.319-.645 2.314-.96 3.15-.96 1.779 0 7.357 1.676 16.65 5.014 2.092 1.554 3.593 2.802 4.502 3.737.823.848 1.099 1.387.97 1.548-.41.507-3.149-.032-7.904-1.709l-.12-.015c-2.685.233-4.3.516-4.914.877-2.5 1.471-6.781 5.087-6.878 5.147a3.748 3.748 0 0 1-1.104.474c-.785.187-1.675.28-2.67.28-2.065 0-4.582-.403-7.548-1.21z"/></clipPath><clipPath id="g7jrcb"><path d="M184.594 347.656c-16.605-1.516-27.542-6.901-38.406-13.08-7.978-4.54-18.476-9.264-22.531-17.744l13.484-27.524c4.164-.372 8.812.86 13.456 3.832 12.977 8.301 30.153 28.491 36.753 30.012 6.6 1.52 36.161-2.153 48.153-2.153 3.23 0 3.256 2.5 3.795 2.515 2.456.065 4.26-.03 5.073-.362 3.029-1.235 3.663 1.978 1.902 9.638l-6.349 1.024c.152 1.454-.361 2.275-1.539 2.465-23.142 3.735-35.231 11.55-49.999 11.55-1.243 0-2.503-.055-3.792-.173z"/></clipPath><clipPath id="g7jrcc"><path d="M184.568 347.943c-14.37-1.312-24.307-5.032-38.522-13.118-1.124-.64-5.909-3.26-7.126-3.95-8.242-4.674-12.98-8.6-15.522-13.919a.287.287 0 1 1 .518-.248c2.478 5.182 7.14 9.046 15.288 13.666 1.212.687 5.997 3.308 7.127 3.95 14.149 8.05 24.015 11.742 38.29 13.046 4.017.367 7.924.143 12.154-.628 2.96-.54 6.011-1.324 10.006-2.524 1.483-.446 8.85-2.752 11.053-3.41 7.256-2.17 13.503-3.683 20.506-4.813 1.013-.163 1.435-.839 1.298-2.15a.288.288 0 0 1 .24-.315l6.158-.993c.838-3.694 1.102-6.317.8-7.846-.282-1.43-1.01-1.822-2.357-1.273-.829.338-2.562.453-5.189.383-.174-.004-.306-.096-.423-.246-.064-.082-.487-.868-.682-1.125-.557-.733-1.367-1.143-2.682-1.143-4.107 0-8.534.288-21.045 1.26l-1.13.087c-15.915 1.232-22.849 1.533-26.042.798-1.92-.442-4.693-2.345-8.712-5.812-1.604-1.383-3.364-2.974-5.732-5.167-.673-.623-4.975-4.63-6.258-5.815a322.283 322.283 0 0 0-4.433-4.024c-4.61-4.096-8.377-7.1-11.709-9.233-4.499-2.877-9.086-4.16-13.275-3.787a.287.287 0 1 1-.051-.572c4.323-.387 9.035.931 13.636 3.875 3.363 2.151 7.15 5.172 11.781 9.287a320.644 320.644 0 0 1 4.441 4.032c1.284 1.184 5.587 5.192 6.259 5.814 2.363 2.189 4.119 3.776 5.717 5.155 3.945 3.402 6.671 5.273 8.465 5.686 3.104.715 10.067.412 25.869-.81l1.13-.088c12.53-.974 16.96-1.262 21.089-1.262 1.497 0 2.476.495 3.14 1.37.232.306.653 1.088.68 1.122 2.53.09 4.213-.022 4.94-.318 1.682-.686 2.785-.09 3.137 1.695.328 1.657.043 4.407-.847 8.275a.286.286 0 0 1-.235.219l-6.086.982c.072 1.433-.538 2.304-1.8 2.508-6.975 1.125-13.2 2.633-20.433 4.795-2.2.657-9.566 2.964-11.052 3.41-4.013 1.206-7.085 1.995-10.068 2.54-2.934.534-5.718.808-8.49.808-1.272 0-2.54-.057-3.82-.174z"/></clipPath><clipPath id="g7jrcd"><path d="M239.663 331.691a.288.288 0 0 1-.254-.319c.216-1.905-.001-4.457-.655-7.649a.288.288 0 0 1 .563-.115c.666 3.247.888 5.854.664 7.83a.287.287 0 0 1-.318.253z"/></clipPath><clipPath id="g7jrce"><path d="M210.414 322.323v-3.558a.287.287 0 1 1 .575 0v3.558a.287.287 0 1 1-.575 0z"/></clipPath><clipPath id="g7jrcf"><path d="M147.845 459.255v-92.88h93.328l11.946 11.588-93.73 91.539z"/></clipPath><clipPath id="g7jrcg"><path d="M158.6 471.712v-93.55c0-.16.129-.289.288-.289h93.495c.257 0 .385.31.204.492l-93.496 93.55a.288.288 0 0 1-.49-.204z"/></clipPath><clipPath id="g7jrch"><path d="M159.175 378.45h92.514l-92.514 92.567z"/></clipPath><clipPath id="g7jrci"><path d="M416.209 401.563c33.634-.766 60.69-28.368 60.69-62.34 0-4.304-.434-8.506-1.26-12.565h70.28c.39 4.136.589 8.328.589 12.565 0 72.409-58.19 131.225-130.3 131.998z"/></clipPath></defs><g><g><g><g><g/><g clip-path="url(#g7jra)"><path d="M74.498 177.863V81.161h96.07v96.702z"/></g></g></g><g><g><g><path fill="#3158af" d="M108.726 107.045c18.65 0 33.77 15.213 33.77 33.98 0 18.765-15.12 33.979-33.77 33.979-18.65 0-33.769-15.214-33.769-33.98s15.12-33.98 33.77-33.98zm0 85.496c28.277 0 51.2-23.065 51.2-51.517s-22.923-51.517-51.2-51.517c-28.276 0-51.199 23.065-51.199 51.517s22.923 51.517 51.2 51.517z"/></g><g clip-path="url(#g7jrb)"><path fill="#3158af" d="M54.65 195.42V86.63h108.152v108.79z"/></g></g></g><g><g><g/><g clip-path="url(#g7jrc)"><path d="M-2.876 433.146V284.639h148.42v148.507z"/></g></g></g><g><g><g/><g clip-path="url(#g7jrd)"><path d="M230.972 440.629v-7.483h108.837v7.483z"/></g></g></g><g><g><g/><g clip-path="url(#g7jre)"><path d="M207.96 457.897v-7.483H339.81v7.483z"/></g></g></g><g><g><g/><g clip-path="url(#g7jrf)"><path d="M512.567 403.79v-94.4h70.309v94.4z"/></g></g></g><g><g><g/><g clip-path="url(#g7jrg)"><path d="M135.189 183.331V6.62h359.544V183.33z"/></g></g></g><g><g><g/><g clip-path="url(#g7jrh)"><path d="M129.149 177.288V-2.878h360.12v180.166z"/></g></g></g><g><g><g/><g clip-path="url(#g7jri)"><path fill="#fff" d="M129.724 176.712V-2.302h358.969v179.014z"/></g></g></g><g><g><g/><g clip-path="url(#g7jrj)"><path d="M152.239 41.77v-6.332h43.804v6.331z"/></g></g></g><g><g><g/><g clip-path="url(#g7jrk)"><path d="M152.16 52.668v-6.331h118.589v6.331z"/></g></g></g><g><g><g/><g clip-path="url(#g7jrl)"><path d="M152.16 63.711V57.38h95.578v6.331z"/></g></g></g><g><g><g/><g clip-path="url(#g7jrm)"><path d="M152.16 74.541V68.21h107.083v6.331z"/></g></g></g><g><g><g/><g clip-path="url(#g7jrn)"><path d="M152.16 85.478v-6.332h66.814v6.332z"/></g></g></g><g><g><g/><g clip-path="url(#g7jro)"><path d="M301.73 161.746V46.624h170.28v115.122z"/></g></g></g><g><g><g/><g clip-path="url(#g7jrp)"><path d="M209.686 24.176V11.512h204.797v12.664z"/></g></g></g><g><g><g/><g clip-path="url(#g7jrq)"><path d="M309.812 153.927V59.644H462.54v94.283z"/></g></g></g><g><g><g/><g clip-path="url(#g7jrr)"><path d="M309.797 154.009V71.576h152.74v82.433z"/></g></g></g><g><g><g/><g clip-path="url(#g7jrs)"><path d="M153.885 159.444V94.4h27.038v65.044z"/></g></g></g><g><g><g/><g clip-path="url(#g7jrt)"><path d="M182.649 159.444v-42.02h27.037v42.02z"/></g></g></g><g><g><g/><g clip-path="url(#g7jru)"><path d="M212.563 159.444v-53.532H239.6v53.532z"/></g></g></g><g><g><g/><g clip-path="url(#g7jrv)"><path fill="#fff" d="M242.765 159.732v-35.688h26.462v35.688z"/></g></g></g><g><path fill="none" stroke="#000" stroke-linecap="round" stroke-linejoin="round" stroke-miterlimit="50" d="M245.641 126.922v0h20.71v29.932h-20.71v0z"/></g><g><g><g/><g clip-path="url(#g7jrw)"><path d="M248.517 183.877V107.35h46.924v76.526z"/></g></g></g><g><g><g/><g clip-path="url(#g7jrx)"><path fill="#fff" d="M233.89 168.09V99.22h59.457v68.87z"/></g></g></g><g><g><g/><g clip-path="url(#g7jry)"><path d="M266.926 136.132v-8.059h8.054v8.059z"/></g></g></g><g><g><g/><g clip-path="url(#g7jrz)"><path d="M279.007 142.463v-8.058h8.053v8.058z"/></g></g></g><g><g><g/><g clip-path="url(#g7jrA)"><path d="M256.513 249.968V211.27h61.612v38.7z"/></g></g></g><g><g><g/><g clip-path="url(#g7jrB)"><path fill="#fff" d="M257.089 249.403V208.39h77.378v41.012z"/></g></g></g><g><g><g/><g clip-path="url(#g7jrC)"><path d="M312.085 244.058v-63.892h50.048v63.892z"/></g></g></g><g><g><g/><g clip-path="url(#g7jrD)"><path d="M333.657 189.663v-6.907h6.904v6.907z"/></g></g></g><g><g><g/><g clip-path="url(#g7jrE)"><path fill="#fff" d="M332.507 242.044v-8.635h8.629v8.635z"/></g></g></g><g><path fill="none" stroke="#000" stroke-linecap="round" stroke-linejoin="round" stroke-miterlimit="50" d="M336.821 239.166a1.438 1.438 0 1 0 0-2.877 1.438 1.438 0 0 0 0 2.877z"/></g><g><g><g/><g clip-path="url(#g7jrF)"><path d="M313.81 237.727v-52.38h46.022v52.38z"/></g></g></g><g><g><g/><g clip-path="url(#g7jrG)"><path d="M319.563 201.463v-9.785h9.78v9.785z"/></g></g></g><g><g><g/><g clip-path="url(#g7jrH)"><path d="M319.563 219.307v-22.449h34.517v22.45z"/></g></g></g><g><g><g/><g clip-path="url(#g7jrI)"><path d="M328.192 224.488v-8.635h17.258v8.635z"/></g></g></g><g><g><g/><g clip-path="url(#g7jrJ)"><path d="M321.864 229.092v-8.634h29.34v8.634z"/></g></g></g><g><g><g/><g clip-path="url(#g7jrK)"><path d="M324.74 200.312v-7.483h12.081v7.483z"/></g></g></g><g><g><g/><g clip-path="url(#g7jrL)"><path d="M321.864 233.697v-8.634h29.34v8.634z"/></g></g></g><g><g><g/><g clip-path="url(#g7jrM)"><path d="M314.098 193.117v-7.483h45.447v7.483z"/></g></g></g><g><g><g/><g clip-path="url(#g7jrN)"><path d="M256.222 252.13v-31.2h32.175v31.2z"/></g></g></g><g><g><g/><g clip-path="url(#g7jrO)"><path fill="#fff" d="M256.814 251.555v-29.907h31.001v29.907z"/></g></g></g><g><g><g/><g clip-path="url(#g7jrP)"><path d="M256.51 251.843V221.22h21.184v30.624z"/></g></g></g><g><g><g/><g clip-path="url(#g7jrQ)"><path d="M267.534 254.625v-32.502h21.08v32.502z"/></g></g></g><g><g><g/><g clip-path="url(#g7jrR)"><path fill="#fff" d="M268.1 254.053v-31.357h19.984v31.357z"/></g></g></g><g><g><g/><g clip-path="url(#g7jrS)"><path d="M202.415 300.376V142.434h77.682v157.942z"/></g></g></g><g><g><g/><g clip-path="url(#g7jrT)"><path fill="#fff" d="M202.982 299.802V142.997h76.54v156.805z"/></g></g></g><g><g><g/><g clip-path="url(#g7jrU)"><path d="M205.717 252.815v-81.717h28.57v81.717z"/></g></g></g><g><g><g/><g clip-path="url(#g7jrV)"><path d="M250.71 187.805v-30.096h24.937v30.096z"/></g></g></g><g><g><g/><g clip-path="url(#g7jrW)"><path d="M261.54 183.766v-16.624h13.4v16.624z"/></g></g></g><g><g><g/><g clip-path="url(#g7jrX)"><path fill="#fff" d="M251.676 184.525v-26.24h23.396v26.24z"/></g></g></g><g><g><g/><g clip-path="url(#g7jrY)"><path d="M222.301 178.373v-31.331h37.694v31.33z"/></g></g></g><g><g><g/><g clip-path="url(#g7jrZ)"><path d="M268.623 150.382v-18.855h13.656v18.855z"/></g></g></g><g><g><g/><g clip-path="url(#g7jraa)"><path d="M219.64 169.241v-14.894h17.725v14.894z"/></g></g></g><g><g><g/><g clip-path="url(#g7jrab)"><path d="M264.786 152.584v-9.428h10.716v9.428z"/></g></g></g><g><g><g/><g clip-path="url(#g7jrac)"><path d="M254.106 299.117V181.071h17.607v118.046z"/></g></g></g><g><g><g/><g clip-path="url(#g7jrad)"><path fill="#fff" d="M310.816 228.746v-18.981h16.744v18.981z"/></g></g></g><g><g><g/><g clip-path="url(#g7jrae)"><path d="M310.529 229.034v-19.557h17.32v19.557z"/></g></g></g><g><g><g/><g clip-path="url(#g7jraf)"><path fill="#fff" d="M224.869 188.366v-46.464h40.154v46.464z"/></g></g></g><g><g><g/><g clip-path="url(#g7jrag)"><path d="M224.579 188.654v-47.04h40.731v47.04z"/></g></g></g><g><g><g/><g clip-path="url(#g7jrah)"><path d="M225.806 171.036V92.102h68.95v78.934z"/></g></g></g><g><g><g/><g clip-path="url(#g7jrai)"><path d="M415.897 234.686v-19.17h13.09v19.17z"/></g></g></g><g><g><g/><g clip-path="url(#g7jraj)"><path fill="#fff" d="M416.739 233.532v-17.097h11.673v17.097z"/></g></g></g><g><g><g/><g clip-path="url(#g7jrak)"><path d="M395.853 191.879v-16.367h11.128v16.367z"/></g></g></g><g><g><g/><g clip-path="url(#g7jral)"><path fill="#fff" d="M396.428 191.218v-14.285h9.762v14.285z"/></g></g></g><g><g><g/><g clip-path="url(#g7jram)"><path d="M397.597 230.82v-83.63h68.081v83.63z"/></g></g></g><g><g><g/><g clip-path="url(#g7jran)"><path d="M398.092 184.175v-23.878h11.198v23.878z"/></g></g></g><g><g><g/><g clip-path="url(#g7jrao)"><path fill="#fff" d="M398.172 230.007v-82.24H465.1v82.24z"/></g></g></g><g><g><g/><g clip-path="url(#g7jrap)"><path d="M393.435 225.461v-83.486h75.686v83.486z"/></g></g></g><g><g><g/><g clip-path="url(#g7jraq)"><path d="M401.748 180.829v-11.597h23.717v11.597z"/></g></g></g><g><g><g/><g clip-path="url(#g7jrar)"><path fill="#fff" d="M419.839 192.208v-21.29h14.12v21.29z"/></g></g></g><g><g><g/><g clip-path="url(#g7jras)"><path d="M419.551 192.496v-21.868h14.675v21.868z"/></g></g></g><g><g><g/><g clip-path="url(#g7jrat)"><path d="M423.128 187.646v-11.74h7.568v11.74z"/></g></g></g><g><g><g/><g clip-path="url(#g7jrau)"><path d="M420.86 184.914v-10.095h10.642v10.095z"/></g></g></g><g><g><g/><g clip-path="url(#g7jrav)"><path d="M347.392 284.12v-94.266h107.334v94.266z"/></g></g></g><g><g><g/><g clip-path="url(#g7jraw)"><path fill="#fff" d="M347.967 283.544V190.42h106.091v93.123z"/></g></g></g><g><g><g/><g clip-path="url(#g7jrax)"><path d="M342.091 215.578v-25.051h52.403v25.051z"/></g></g></g><g><g><g/><g clip-path="url(#g7jray)"><path fill="#fff" d="M343.36 214.888v-23.702h50.475v23.702z"/></g></g></g><g><g><g/><g clip-path="url(#g7jraz)"><path fill="#fff" d="M362.996 211.326v-17.058h11.68v17.058z"/></g></g></g><g><g><g/><g clip-path="url(#g7jraA)"><path fill="#fff" d="M357.856 211.653V194.6h11.522v17.053z"/></g></g></g><g><g><g/><g clip-path="url(#g7jraB)"><path fill="#fff" d="M350.106 214.638V201.18h12.223v13.458z"/></g></g></g><g><g><g/><g clip-path="url(#g7jraC)"><path fill="#fff" d="M353.197 212.808v-14.302h12.344v14.302z"/></g></g></g><g><g><g/><g clip-path="url(#g7jraD)"><path d="M362.708 211.607V193.98h12.255v17.627z"/></g></g></g><g><g><g/><g clip-path="url(#g7jraE)"><path d="M357.562 211.942v-17.63h12.104v17.63z"/></g></g></g><g><g><g/><g clip-path="url(#g7jraF)"><path d="M349.887 214.902v-14.11h12.73v14.11z"/></g></g></g><g><g><g/><g clip-path="url(#g7jraG)"><path d="M352.912 213.05v-14.833h12.938v14.834z"/></g></g></g><g><g><g/><g clip-path="url(#g7jraH)"><path d="M351.964 288.858v-68.744h102.762v68.744z"/></g></g></g><g><g><g/><g clip-path="url(#g7jraI)"><path fill="#fff" d="M352.656 288.283v-67.35h101.45v67.35z"/></g></g></g><g><path fill="none" stroke="#000" stroke-linecap="round" stroke-linejoin="round" stroke-miterlimit="50" d="M396.009 254.854c1.676 2.418 2.514 4.054 2.514 4.909"/></g><g><g><g/><g clip-path="url(#g7jraJ)"><path d="M379.231 288.57v-63.795h75.207v63.795z"/></g></g></g><g><g><g/><g clip-path="url(#g7jraK)"><path d="M351.644 240.44v-21.673h25v21.672z"/></g></g></g><g><g><g/><g clip-path="url(#g7jraL)"><path fill="#fff" d="M352.327 239.863v-20.368h23.702v20.368z"/></g></g></g><g><g><g/><g clip-path="url(#g7jraM)"><path d="M357.195 239.884v-16.411h8.685v16.41z"/></g></g></g><g><g><g/><g clip-path="url(#g7jraN)"><path d="M359.832 236.575v-9.21h9.205v9.21z"/></g></g></g><g><g><g/><g clip-path="url(#g7jraO)"><path d="M416.597 396.878V204.882h107.055v191.996z"/></g></g></g><g><g><g/><g clip-path="url(#g7jraP)"><path d="M428.073 419.18v-57.767h94.634v57.767z"/></g><g clip-path="url(#g7jraP)"><path d="M428.073 419.18v-57.767h94.634v57.767z"/></g></g></g><g><g><g/><g clip-path="url(#g7jraQ)"><path fill="#fff" d="M417.172 396.302v-190.85H523.07v190.85z"/></g></g></g><g><g><g/><g clip-path="url(#g7jraR)"><path d="M422.253 240.527v-35.916h39.459v35.916z"/></g></g></g><g><g><g/><g clip-path="url(#g7jraS)"><path d="M416.885 320.645V241.53h58.487v79.115z"/></g></g></g><g><g><g/><g clip-path="url(#g7jraT)"><path d="M454.06 387.236V278.191h28.348v109.045z"/></g></g></g><g><g><g/><g clip-path="url(#g7jraU)"><path d="M491.018 386.282v-26.063h30.212v26.063z"/></g></g></g><g><g><g/><g clip-path="url(#g7jraV)"><path d="M421.966 236.51v-37.943h39.641v37.942z"/></g></g></g><g><g><g/><g clip-path="url(#g7jraW)"><path fill="#fff" d="M422.541 235.725v-36.556h38.327v36.556z"/></g></g></g><g><g><g/><g clip-path="url(#g7jraX)"><path d="M441.257 232.804V213.76h20.35v19.045z"/></g></g></g><g><g><g/><g clip-path="url(#g7jraY)"><path d="M73.665 459.055v-59.207h138.84v59.207z"/></g></g></g><g><g><g/><g clip-path="url(#g7jraZ)"><path d="M69.884 439.188V259.024h98.25v180.164z"/></g></g></g><g><g><g/><g clip-path="url(#g7jrba)"><path fill="#fff" d="M70.467 438.613v-178.97h97.095v178.97z"/></g></g></g><g><g><g/><g clip-path="url(#g7jrbb)"><path d="M122.485 357.36v-63.216h47.845v63.215z"/></g></g></g><g><g><g/><g clip-path="url(#g7jrbc)"><path d="M72.029 421.84v-34.657h45.627v34.656z"/></g></g></g><g><g><g/><g clip-path="url(#g7jrbd)"><path d="M78.327 392.269v-18.825h26.826v18.825z"/></g></g></g><g><g><g/><g clip-path="url(#g7jrbe)"><path fill="#fff" d="M173.378 262.955v-15.699h9.644v15.7z"/></g></g></g><g><g><g/><g clip-path="url(#g7jrbf)"><path d="M173.09 263.243v-16.275h10.218v16.275z"/></g></g></g><g><g><g/><g clip-path="url(#g7jrbg)"><path fill="#fff" d="M148.995 281.505v-70.544h35.406v70.544z"/></g></g></g><g><g><g/><g clip-path="url(#g7jrbh)"><path d="M148.708 281.792v-71.12h35.982v71.12z"/></g></g></g><g><g><g/><g clip-path="url(#g7jrbi)"><path d="M88.017 288.412V187.361h100.277v101.051z"/></g></g></g><g><g><g/><g clip-path="url(#g7jrbj)"><path d="M176.446 257.132v-24.005h10.116v24.005z"/></g></g></g><g><g><g/><g clip-path="url(#g7jrbk)"><path d="M163.738 248.36v-7.062h21.824v7.061z"/></g></g></g><g><g><g/><g clip-path="url(#g7jrbl)"><path d="M124.563 424.28V323.023h10.604v101.259z"/></g></g></g><g><g><g/><g clip-path="url(#g7jrbm)"><path d="M136.051 397.57V279.366h355.477v118.202z"/></g></g></g><g><g><g/><g clip-path="url(#g7jrbn)"><path fill="#fff" d="M136.81 396.994V279.942H490.6v117.052z"/></g></g></g><g><g><g/><g clip-path="url(#g7jrbo)"><path d="M138.928 421.542v-30.507h349.765v30.507z"/></g></g></g><g><g><g/><g clip-path="url(#g7jrbp)"><path fill="#fff" d="M139.503 420.967V391.61h348.615v29.356z"/></g></g></g><g><g><g/><g clip-path="url(#g7jrbq)"><path d="M139.216 408.591v-11.512h349.19v11.512z"/></g></g></g><g><g><g/><g clip-path="url(#g7jrbr)"><path d="M136.052 403.123v-12.088h355.475v12.088z"/></g></g></g><g><g><g/><g clip-path="url(#g7jrbs)"><path fill="#fff" d="M136.627 402.547v-10.936h354.325v10.936z"/></g></g></g><g><g><g/><g clip-path="url(#g7jrbt)"><path d="M316.687 296.18v-31.463h26.462v31.464z"/></g></g></g><g><g><g/><g clip-path="url(#g7jrbu)"><path fill="#fff" d="M317.3 295.605v-30.313h25.236v30.313z"/></g></g></g><g><g><g/><g clip-path="url(#g7jrbv)"><path d="M316.4 273.127v-10.361h27.037v10.36z"/></g></g></g><g><g><g/><g clip-path="url(#g7jrbw)"><path d="M319.276 269.097v-8.634h21.285v8.634z"/></g></g></g><g><g><g/><g clip-path="url(#g7jrbx)"><path d="M238.45 305.966v-31.464h26.463v31.464z"/></g></g></g><g><g><g/><g clip-path="url(#g7jrby)"><path fill="#fff" d="M239.064 305.39v-30.312h25.235v30.312z"/></g></g></g><g><g><g/><g clip-path="url(#g7jrbz)"><path d="M238.162 282.912V272.55H265.2v10.36z"/></g></g></g><g><g><g/><g clip-path="url(#g7jrbA)"><path d="M241.039 278.883v-8.635h21.285v8.635z"/></g></g></g><g><g><g/><g clip-path="url(#g7jrbB)"><path d="M189.88 304.907v-140.76h68.246v140.76z"/></g></g></g><g><g><g/><g clip-path="url(#g7jrbC)"><path fill="#fff" d="M190.456 304.315V164.667h67.042v139.648z"/></g></g></g><g><g><g/><g clip-path="url(#g7jrbD)"><path fill="#fff" d="M184.411 269.138V162.997h49.412v106.14z"/></g></g></g><g><g><g/><g clip-path="url(#g7jrbE)"><path d="M184.123 269.428V162.71h50v106.72z"/></g></g></g><g><g><g/><g clip-path="url(#g7jrbF)"><path d="M187.144 270.522v-26.246h34.965v26.246z"/></g></g></g><g><g><g/><g clip-path="url(#g7jrbG)"><path fill="#fff" d="M187.718 269.948V244.85h33.816v25.097z"/></g></g></g><g><g><g/><g clip-path="url(#g7jrbH)"><path d="M310.742 312.678v-48.536h108.011v48.537z"/></g></g></g><g><g><g/><g clip-path="url(#g7jrbI)"><path fill="#fff" d="M311.319 312.024v-47.307H417.89v47.307z"/></g></g></g><g><g><g/><g clip-path="url(#g7jrbJ)"><path fill="#fff" d="M335.999 313.187v-86.105h140.006v86.105z"/></g></g></g><g><g><g/><g clip-path="url(#g7jrbK)"><path d="M400.305 285.123v-6.332h11.704v6.332z"/></g></g></g><g><g><g/><g clip-path="url(#g7jrbL)"><path d="M335.71 313.48v-86.698h140.583v86.698z"/></g></g></g><g><g><g/><g clip-path="url(#g7jrbM)"><path d="M335.71 304.086v-25.308h19.836v25.308z"/></g></g></g><g><g><g/><g clip-path="url(#g7jrbN)"><path fill="#fff" d="M336.286 303.455v-24.088h17.675v24.088z"/></g></g></g><g><g><g/><g clip-path="url(#g7jrbO)"><path d="M248.517 326.083v-49.885h69.49v49.885z"/></g></g></g><g><g><g/><g clip-path="url(#g7jrbP)"><path fill="#fff" d="M251.969 323.676v-44.7h63.494v44.7z"/></g></g></g><g><g><g/><g clip-path="url(#g7jrbQ)"><path d="M215.44 338.134v-20.398h92.142v20.398z"/></g></g></g><g><g><g/><g clip-path="url(#g7jrbR)"><path fill="#fff" d="M216.058 337.564v-19.255h90.95v19.255z"/></g></g></g><g><g><g/><g clip-path="url(#g7jrbS)"><path d="M215.44 334.68v-20.389h92.143v20.39z"/></g></g></g><g><g><g/><g clip-path="url(#g7jrbT)"><path fill="#fff" d="M217.348 334.11v-19.248h88.326v19.248z"/></g></g></g><g><g><g/><g clip-path="url(#g7jrbU)"><path d="M239.888 331.213v-14.916h55.698v14.916z"/></g></g></g><g><g><g/><g clip-path="url(#g7jrbV)"><path d="M210.83 331.916v-22.561h43.154v22.561z"/></g></g></g><g><g><g/><g clip-path="url(#g7jrbW)"><path fill="#fff" d="M211.418 331.344V309.93h41.969v21.414z"/></g></g></g><g><g><g/><g clip-path="url(#g7jrbX)"><path d="M164.671 339.19v-27.863h57.374v27.862z"/></g></g></g><g><g><g/><g clip-path="url(#g7jrbY)"><path fill="#fff" d="M165.247 338.613v-26.71h56.223v26.71z"/></g></g></g><g><g><g/><g clip-path="url(#g7jrbZ)"><path d="M239.594 335.967v-22.26h41.728v22.26z"/></g></g></g><g><g><g/><g clip-path="url(#g7jrca)"><path fill="#fff" d="M240.182 335.392v-21.11h40.571v21.11z"/></g></g></g><g><g><g/><g clip-path="url(#g7jrcb)"><path fill="#fff" d="M120.78 350.708v-64.342h129.34v64.342z"/></g></g></g><g><g><g/><g clip-path="url(#g7jrcc)"><path d="M120.493 350.996v-64.918h129.915v64.918z"/></g></g></g><g><g><g/><g clip-path="url(#g7jrcd)"><path d="M235.872 334.57V320.5h7.07v14.07z"/></g></g></g><g><g><g/><g clip-path="url(#g7jrce)"><path d="M207.537 325.488V315.6h6.328v9.89z"/></g></g></g><g><g><g><path fill="#3158af" d="M147.845 459.255v-92.88h93.328l11.946 11.588-93.73 91.539z"/></g><g clip-path="url(#g7jrcf)"><path fill="#3158af" d="M144.968 472.38V363.497h111.028V472.38z"/></g></g></g><g><g><g/><g clip-path="url(#g7jrcg)"><path d="M155.724 474.878v-99.883h99.824v99.883z"/></g></g></g><g><g><g/><g clip-path="url(#g7jrch)"><path fill="#fff" d="M156.299 473.895V375.57h98.266v98.324z"/></g></g></g><g><g><g><path fill="#3158af" d="M416.209 401.563c33.634-.766 60.69-28.368 60.69-62.34 0-4.304-.434-8.506-1.26-12.565h70.28c.39 4.136.589 8.328.589 12.565 0 72.409-58.19 131.225-130.3 131.998z"/></g><g clip-path="url(#g7jrci)"><path fill="#3158af" d="M413.332 474.099V323.78h136.052V474.1z"/></g></g></g></g></g></svg>