<svg xmlns="http://www.w3.org/2000/svg" width="39" height="39" viewBox="0 0 39 39"><g><g><g><path fill="#3158af" d="M7.802 4.481c.13 1.925.457 3.805.972 5.587l-2.59 2.585A32.071 32.071 0 0 1 4.546 4.48zm21.27 25.929zm0 0a27.6 27.6 0 0 0 5.608.97l-.002 3.214a33.383 33.383 0 0 1-8.195-1.619zm7.765 8.584a2.16 2.16 0 0 0 2.157-2.157v-7.529a2.16 2.16 0 0 0-2.157-2.156c-2.64 0-5.23-.414-7.7-1.23a1.774 1.774 0 0 0-.669-.107c-.563 0-1.107.222-1.532.625l-4.745 4.745C16.1 28.065 11.05 23.016 7.976 16.97l4.745-4.745c.578-.578.785-1.42.54-2.2a24.448 24.448 0 0 1-1.23-7.7A2.16 2.16 0 0 0 9.872.166H2.324A2.16 2.16 0 0 0 .167 2.324c0 4.951.97 9.754 2.882 14.274a36.543 36.543 0 0 0 7.858 11.656 36.543 36.543 0 0 0 11.655 7.858 36.445 36.445 0 0 0 14.275 2.882z"/></g></g></g></svg>