<svg xmlns="http://www.w3.org/2000/svg" width="21" height="17" viewBox="0 0 21 17"><g><g><path fill="#1ea4f0" d="M20.5 1.937a8.13 8.13 0 0 1-2.356.65A4.134 4.134 0 0 0 19.948.303a8.17 8.17 0 0 1-2.607 1A4.08 4.08 0 0 0 14.346 0c-2.264 0-4.101 1.85-4.101 4.13 0 .325.035.639.105.942A11.62 11.62 0 0 1 1.892.754a4.147 4.147 0 0 0-.555 2.08c0 1.432.724 2.696 1.825 3.437a4.085 4.085 0 0 1-1.859-.515v.05a4.125 4.125 0 0 0 3.293 4.051 3.98 3.98 0 0 1-1.081.146c-.265 0-.523-.025-.773-.074a4.108 4.108 0 0 0 3.833 2.868 8.195 8.195 0 0 1-5.096 1.769c-.331 0-.659-.019-.979-.057a11.576 11.576 0 0 0 6.29 1.855c7.548 0 11.674-6.294 11.674-11.753 0-.18-.003-.36-.01-.536A8.332 8.332 0 0 0 20.5 1.937"/></g></g></svg>